<?xml version="1.0" encoding="UTF-8"?>
<svg width="7600px" height="1600px" viewBox="0 0 7600 1600" version="1.1" xmlns="http://www.w3.org/2000/svg" xmlns:xlink="http://www.w3.org/1999/xlink">
    <title>TernaryCalculator</title>
    <g id="Page-1" stroke="none" stroke-width="1" fill="none" fill-rule="evenodd">
        <g id="Power-glyphs-Copy" stroke="#ECD9AF">
            <g id="pow_left" transform="translate(4800, 800) rotate(-90) translate(-4800, -800)translate(4000, 0)">
                <path d="M1440,25 C1477.70055,25 1490.43471,25.2001487 1503.64401,26.2793912 C1517.04317,27.374146 1525.84293,29.3176662 1532.70246,32.5176426 L1534.04929,33.1745115 C1548.16144,40.3650138 1559.63499,51.8385556 1566.82549,65.9507125 C1570.41943,73.0042094 1572.55287,82.0635536 1573.72061,96.3559934 C1574.79985,109.565294 1575,122.299446 1575,160 L1575,1440 C1575,1477.70055 1574.79985,1490.43471 1573.72061,1503.64401 C1572.55287,1517.93645 1570.41943,1526.99579 1566.82549,1534.04929 C1559.63499,1548.16144 1548.16144,1559.63499 1534.04929,1566.82549 C1526.99579,1570.41943 1517.93645,1572.55287 1503.64401,1573.72061 C1490.43471,1574.79985 1477.70055,1575 1440,1575 L160,1575 C122.299446,1575 109.565294,1574.79985 96.3559934,1573.72061 C82.0635536,1572.55287 73.0042094,1570.41943 65.9507125,1566.82549 C51.8385556,1559.63499 40.3650138,1548.16144 33.1745107,1534.04929 C29.5805745,1526.99579 27.4471297,1517.93645 26.2793912,1503.64401 C25.2001487,1490.43471 25,1477.70055 25,1440 L25,160 C25,122.299446 25.2001487,109.565294 26.2793912,96.3559934 C27.4471297,82.0635536 29.5805745,73.0042094 33.1745107,65.9507125 C40.3650138,51.8385556 51.8385556,40.3650138 65.9507125,33.1745107 C78.8093768,26.622694 95.3518482,25.046768 149.842189,25.0026538 L160.00654,24.9999991 Z" id="Rectangle-2" stroke-width="50" fill="#000000"></path>
                <line x1="799.857143" y1="373.428571" x2="515.252153" y2="1227.24354" id="+E" stroke-width="100" stroke-linecap="round"></line>
                <line x1="900" y1="1227" x2="700.000018" y2="1227.08549" id="+E-Copy-2" stroke-width="100" stroke-linecap="round"></line>
                <line x1="1084.85714" y1="373.428571" x2="800.252153" y2="1227.24354" id="+E-Copy" stroke-width="100" stroke-linecap="round" transform="translate(942.5546, 800.3361) scale(-1, 1) translate(-942.5546, -800.3361)"></line>
            </g>
            <g id="pow_right" transform="translate(800, 800) rotate(90) translate(-800, -800)">
                <path d="M1440,25 C1477.70055,25 1490.43471,25.2001487 1503.64401,26.2793912 C1517.04317,27.374146 1525.84293,29.3176662 1532.70246,32.5176426 L1534.04929,33.1745115 C1548.16144,40.3650138 1559.63499,51.8385556 1566.82549,65.9507125 C1570.41943,73.0042094 1572.55287,82.0635536 1573.72061,96.3559934 C1574.79985,109.565294 1575,122.299446 1575,160 L1575,1440 C1575,1477.70055 1574.79985,1490.43471 1573.72061,1503.64401 C1572.55287,1517.93645 1570.41943,1526.99579 1566.82549,1534.04929 C1559.63499,1548.16144 1548.16144,1559.63499 1534.04929,1566.82549 C1526.99579,1570.41943 1517.93645,1572.55287 1503.64401,1573.72061 C1490.43471,1574.79985 1477.70055,1575 1440,1575 L160,1575 C122.299446,1575 109.565294,1574.79985 96.3559934,1573.72061 C82.0635536,1572.55287 73.0042094,1570.41943 65.9507125,1566.82549 C51.8385556,1559.63499 40.3650138,1548.16144 33.1745107,1534.04929 C29.5805745,1526.99579 27.4471297,1517.93645 26.2793912,1503.64401 C25.2001487,1490.43471 25,1477.70055 25,1440 L25,160 C25,122.299446 25.2001487,109.565294 26.2793912,96.3559934 C27.4471297,82.0635536 29.5805745,73.0042094 33.1745107,65.9507125 C40.3650138,51.8385556 51.8385556,40.3650138 65.9507125,33.1745107 C78.8093768,26.622694 95.3518482,25.046768 149.842189,25.0026538 L160.00654,24.9999991 Z" id="Rectangle-2" stroke-width="50" fill="#000000"></path>
                <line x1="799.857143" y1="373.428571" x2="515.252153" y2="1227.24354" id="+E" stroke-width="100" stroke-linecap="round"></line>
                <line x1="900" y1="1227" x2="700.000018" y2="1227.08549" id="+E-Copy-2" stroke-width="100" stroke-linecap="round"></line>
                <line x1="1084.85714" y1="373.428571" x2="800.252153" y2="1227.24354" id="+E-Copy" stroke-width="100" stroke-linecap="round" transform="translate(942.5546, 800.3361) scale(-1, 1) translate(-942.5546, -800.3361)"></line>
            </g>
            <g id="log_right" transform="translate(2800, 800) rotate(90) translate(-2800, -800)translate(2000, 0)">
                <path d="M1440,25 C1477.70055,25 1490.43471,25.2001487 1503.64401,26.2793912 C1517.04317,27.374146 1525.84293,29.3176662 1532.70246,32.5176426 L1534.04929,33.1745115 C1548.16144,40.3650138 1559.63499,51.8385556 1566.82549,65.9507125 C1570.41943,73.0042094 1572.55287,82.0635536 1573.72061,96.3559934 C1574.79985,109.565294 1575,122.299446 1575,160 L1575,1440 C1575,1477.70055 1574.79985,1490.43471 1573.72061,1503.64401 C1572.55287,1517.93645 1570.41943,1526.99579 1566.82549,1534.04929 C1559.63499,1548.16144 1548.16144,1559.63499 1534.04929,1566.82549 C1526.99579,1570.41943 1517.93645,1572.55287 1503.64401,1573.72061 C1490.43471,1574.79985 1477.70055,1575 1440,1575 L160,1575 C122.299446,1575 109.565294,1574.79985 96.3559934,1573.72061 C82.0635536,1572.55287 73.0042094,1570.41943 65.9507125,1566.82549 C51.8385556,1559.63499 40.3650138,1548.16144 33.1745107,1534.04929 C29.5805745,1526.99579 27.4471297,1517.93645 26.2793912,1503.64401 C25.2001487,1490.43471 25,1477.70055 25,1440 L25,160 C25,122.299446 25.2001487,109.565294 26.2793912,96.3559934 C27.4471297,82.0635536 29.5805745,73.0042094 33.1745107,65.9507125 C40.3650138,51.8385556 51.8385556,40.3650138 65.9507125,33.1745107 C78.8093768,26.622694 95.3518482,25.046768 149.842189,25.0026538 L160.00654,24.9999991 Z" id="Rectangle-2" stroke-width="50" fill="#000000"></path>
                <line x1="799.857143" y1="373.428571" x2="515.252153" y2="1227.24354" id="+E" stroke-width="100" stroke-linecap="round"></line>
                <line x1="1084.85714" y1="373.428571" x2="800.252153" y2="1227.24354" id="+E-Copy" stroke-width="100" stroke-linecap="round" transform="translate(942.5546, 800.3361) scale(-1, 1) translate(-942.5546, -800.3361)"></line>
                <line x1="831.565218" y1="1032.14903" x2="768.215615" y2="1221.85097" id="+E-Copy-4" stroke-width="100" stroke-linecap="round" transform="translate(799.8904, 1127) rotate(-18.4664) translate(-799.8904, -1127)"></line>
            </g>
            <g id="log_left" transform="translate(6800, 800) rotate(-90) translate(-6800, -800)translate(6000, 0)">
                <path d="M1440,25 C1477.70055,25 1490.43471,25.2001487 1503.64401,26.2793912 C1517.04317,27.374146 1525.84293,29.3176662 1532.70246,32.5176426 L1534.04929,33.1745115 C1548.16144,40.3650138 1559.63499,51.8385556 1566.82549,65.9507125 C1570.41943,73.0042094 1572.55287,82.0635536 1573.72061,96.3559934 C1574.79985,109.565294 1575,122.299446 1575,160 L1575,1440 C1575,1477.70055 1574.79985,1490.43471 1573.72061,1503.64401 C1572.55287,1517.93645 1570.41943,1526.99579 1566.82549,1534.04929 C1559.63499,1548.16144 1548.16144,1559.63499 1534.04929,1566.82549 C1526.99579,1570.41943 1517.93645,1572.55287 1503.64401,1573.72061 C1490.43471,1574.79985 1477.70055,1575 1440,1575 L160,1575 C122.299446,1575 109.565294,1574.79985 96.3559934,1573.72061 C82.0635536,1572.55287 73.0042094,1570.41943 65.9507125,1566.82549 C51.8385556,1559.63499 40.3650138,1548.16144 33.1745107,1534.04929 C29.5805745,1526.99579 27.4471297,1517.93645 26.2793912,1503.64401 C25.2001487,1490.43471 25,1477.70055 25,1440 L25,160 C25,122.299446 25.2001487,109.565294 26.2793912,96.3559934 C27.4471297,82.0635536 29.5805745,73.0042094 33.1745107,65.9507125 C40.3650138,51.8385556 51.8385556,40.3650138 65.9507125,33.1745107 C78.8093768,26.622694 95.3518482,25.046768 149.842189,25.0026538 L160.00654,24.9999991 Z" id="Rectangle-2" stroke-width="50" fill="#000000"></path>
                <line x1="799.857143" y1="373.428571" x2="515.252153" y2="1227.24354" id="+E" stroke-width="100" stroke-linecap="round"></line>
                <line x1="1084.85714" y1="373.428571" x2="800.252153" y2="1227.24354" id="+E-Copy" stroke-width="100" stroke-linecap="round" transform="translate(942.5546, 800.3361) scale(-1, 1) translate(-942.5546, -800.3361)"></line>
                <line x1="831.565218" y1="1032.14903" x2="768.215615" y2="1221.85097" id="+E-Copy-4" stroke-width="100" stroke-linecap="round" transform="translate(799.8904, 1127) rotate(-18.4664) translate(-799.8904, -1127)"></line>
            </g>
        </g>
    </g>
</svg>