<?xml version="1.0" encoding="UTF-8"?>
<svg width="7600px" height="5601px" viewBox="0 0 7600 5601" version="1.1" xmlns="http://www.w3.org/2000/svg" xmlns:xlink="http://www.w3.org/1999/xlink">
    <title>TernaryCalculator</title>
    <g id="Page-1" stroke="none" stroke-width="1" fill="none" fill-rule="evenodd">
        <g id="Keypad-glyphs" transform="translate(-400, -399)">
            <g id="=" transform="translate(6400, 4400)">
                <path d="M160,0 L1440,0 C1496.00525,0 1524.00788,0 1545.39905,10.8993476 C1564.21526,20.4866851 1579.51331,35.7847407 1589.10065,54.60095 C1600,75.9921241 1600,103.994749 1600,160 L1600,1440 C1600,1496.00525 1600,1524.00788 1589.10065,1545.39905 C1579.51331,1564.21526 1564.21526,1579.51331 1545.39905,1589.10065 C1524.00788,1600 1496.00525,1600 1440,1600 L160,1600 C103.994749,1600 75.9921241,1600 54.60095,1589.10065 C35.7847407,1579.51331 20.4866851,1564.21526 10.8993476,1545.39905 C0,1524.00788 0,1496.00525 0,1440 L0,160 C0,103.994749 0,75.9921241 10.8993476,54.60095 C20.4866851,35.7847407 35.7847407,20.4866851 54.60095,10.8993476 C75.9921241,0 103.994749,0 160,0 Z" id="Rectangle-2-Copy-11" fill="#000000" opacity="0"></path>
                <line x1="942.302495" y1="573.338664" x2="657.697505" y2="1427.15363" id="+E-Copy-7" stroke="#000000" stroke-width="100" stroke-linecap="round" transform="translate(800, 1000.2461) rotate(-108.4349) translate(-800, -1000.2461)"></line>
                <line x1="942.302495" y1="173.338564" x2="657.697505" y2="1027.15353" id="+E-Copy-8" stroke="#000000" stroke-width="100" stroke-linecap="round" transform="translate(800, 600.246) rotate(-108.4349) translate(-800, -600.246)"></line>
            </g>
            <g id="Tri-trit" transform="translate(6400, 2399.3386)">
                <path d="M160,0.661435575 L1440,0.661435575 C1496.00525,0.661435575 1524.00788,0.661435575 1545.39905,11.5607832 C1564.21526,21.1481207 1579.51331,36.4461763 1589.10065,55.2623856 C1600,76.6535597 1600,104.656185 1600,160.661436 L1600,1440.66144 C1600,1496.66669 1600,1524.66931 1589.10065,1546.06049 C1579.51331,1564.87669 1564.21526,1580.17475 1545.39905,1589.76209 C1524.00788,1600.66144 1496.00525,1600.66144 1440,1600.66144 L160,1600.66144 C103.994749,1600.66144 75.9921241,1600.66144 54.60095,1589.76209 C35.7847407,1580.17475 20.4866851,1564.87669 10.8993476,1546.06049 C0,1524.66931 0,1496.66669 0,1440.66144 L0,160.661436 C0,104.656185 0,76.6535597 10.8993476,55.2623856 C20.4866851,36.4461763 35.7847407,21.1481207 54.60095,11.5607832 C75.9921241,0.661435575 103.994749,0.661435575 160,0.661435575 Z" id="Rectangle-2-Copy-7" fill="#000000" opacity="0"></path>
                <line x1="942.302495" y1="-76" x2="657.697505" y2="777.814968" id="+E-Copy-9" stroke="#000000" stroke-width="100" stroke-linecap="round" transform="translate(800, 350.9075) rotate(-108.4349) translate(-800, -350.9075)"></line>
                <line x1="942.302495" y1="824" x2="657.697505" y2="1677.81497" id="+E-Copy-10" stroke="#000000" stroke-width="100" stroke-linecap="round" transform="translate(800, 1250.9075) rotate(-108.4349) translate(-800, -1250.9075)"></line>
                <line x1="492.302495" y1="374" x2="207.697505" y2="1227.81497" id="+E-Copy-11" stroke="#000000" stroke-width="100" stroke-linecap="round" transform="translate(350, 800.9075) rotate(-18.4349) translate(-350, -800.9075)"></line>
                <line x1="1392.30249" y1="374" x2="1107.69751" y2="1227.81497" id="+E-Copy-12" stroke="#000000" stroke-width="100" stroke-linecap="round" transform="translate(1250, 800.9075) rotate(-18.4349) translate(-1250, -800.9075)"></line>
            </g>
            <g id="Clear" transform="translate(6400, 400)">
                <path d="M160,0 L1440,0 C1496.00525,0 1524.00788,0 1545.39905,10.8993476 C1564.21526,20.4866851 1579.51331,35.7847407 1589.10065,54.60095 C1600,75.9921241 1600,103.994749 1600,160 L1600,1440 C1600,1496.00525 1600,1524.00788 1589.10065,1545.39905 C1579.51331,1564.21526 1564.21526,1579.51331 1545.39905,1589.10065 C1524.00788,1600 1496.00525,1600 1440,1600 L160,1600 C103.994749,1600 75.9921241,1600 54.60095,1589.10065 C35.7847407,1579.51331 20.4866851,1564.21526 10.8993476,1545.39905 C0,1524.00788 0,1496.00525 0,1440 L0,160 C0,103.994749 0,75.9921241 10.8993476,54.60095 C20.4866851,35.7847407 35.7847407,20.4866851 54.60095,10.8993476 C75.9921241,0 103.994749,0 160,0 Z" id="Rectangle-2-Copy-3" fill="#000000" opacity="0"></path>
                <line x1="942.462132" y1="516.218593" x2="657.857143" y2="1370.03356" id="+E-Copy" stroke="#000000" stroke-width="100" stroke-linecap="round" transform="translate(800.1596, 943.1261) rotate(-90) translate(-800.1596, -943.1261)"></line>
                <line x1="942.462132" y1="231.218593" x2="657.857143" y2="1085.03356" id="+E-Copy-2" stroke="#000000" stroke-width="100" stroke-linecap="round" transform="translate(800.1596, 658.1261) scale(-1, 1) rotate(-90) translate(-800.1596, -658.1261)"></line>
            </g>
            <g id="Point" transform="translate(4400, 4400)">
                <path d="M160,0 L1440,0 C1496.00525,0 1524.00788,0 1545.39905,10.8993476 C1564.21526,20.4866851 1579.51331,35.7847407 1589.10065,54.60095 C1600,75.9921241 1600,103.994749 1600,160 L1600,1440 C1600,1496.00525 1600,1524.00788 1589.10065,1545.39905 C1579.51331,1564.21526 1564.21526,1579.51331 1545.39905,1589.10065 C1524.00788,1600 1496.00525,1600 1440,1600 L160,1600 C103.994749,1600 75.9921241,1600 54.60095,1589.10065 C35.7847407,1579.51331 20.4866851,1564.21526 10.8993476,1545.39905 C0,1524.00788 0,1496.00525 0,1440 L0,160 C0,103.994749 0,75.9921241 10.8993476,54.60095 C20.4866851,35.7847407 35.7847407,20.4866851 54.60095,10.8993476 C75.9921241,0 103.994749,0 160,0 Z" id="Rectangle-2-Copy-10" fill="#000000" opacity="0"></path>
                <circle id="Oval" stroke="#000000" stroke-width="100" cx="800" cy="800" r="100"></circle>
            </g>
            <g id="flip" transform="translate(5180, 3203) rotate(-90) translate(-5180, -3203)translate(4380, 2403)">
                <path d="M163,20 L1443,20 C1499.00525,20 1527.00788,20 1548.39905,30.8993476 C1567.21526,40.4866851 1582.51331,55.7847407 1592.10065,74.60095 C1603,95.9921241 1603,123.994749 1603,180 L1603,1460 C1603,1516.00525 1603,1544.00788 1592.10065,1565.39905 C1582.51331,1584.21526 1567.21526,1599.51331 1548.39905,1609.10065 C1527.00788,1620 1499.00525,1620 1443,1620 L163,1620 C106.994749,1620 78.9921241,1620 57.60095,1609.10065 C38.7847407,1599.51331 23.4866851,1584.21526 13.8993476,1565.39905 C3,1544.00788 3,1516.00525 3,1460 L3,180 C3,123.994749 3,95.9921241 13.8993476,74.60095 C23.4866851,55.7847407 38.7847407,40.4866851 57.60095,30.8993476 C78.9921241,20 106.994749,20 163,20 Z" id="Rectangle-2-Copy-8" fill="#000000" opacity="0"></path>
                <line x1="944.857143" y1="369.663944" x2="802.554648" y2="796.571429" id="+E" stroke="#000000" stroke-width="100" stroke-linecap="round" transform="translate(873.7059, 583.1177) scale(1, -1) translate(-873.7059, -583.1177)"></line>
                <line x1="944.857143" y1="842.663944" x2="802.554648" y2="1269.57143" id="+E-Copy-2" stroke="#000000" stroke-width="100" stroke-linecap="round" transform="translate(873.7059, 1056.1177) scale(-1, -1) translate(-873.7059, -1056.1177)"></line>
                <line x1="945.302495" y1="393.092516" x2="660.697505" y2="1246.90748" id="+E-Copy-3" stroke="#000000" stroke-width="100" stroke-linecap="round" transform="translate(803, 820) scale(1, -1) rotate(-108.4349) translate(-803, -820)"></line>
                <line x1="802.857143" y1="369.75646" x2="660.554648" y2="796.663944" id="+E-Copy" stroke="#000000" stroke-width="100" stroke-linecap="round"></line>
                <line x1="802.857143" y1="842.75646" x2="660.554648" y2="1269.66394" id="+E-Copy-4" stroke="#000000" stroke-width="100" stroke-linecap="round" transform="translate(731.7059, 1056.2102) scale(-1, 1) translate(-731.7059, -1056.2102)"></line>
            </g>
            <g id="invert" transform="translate(4397, 380)">
                <path d="M163,20 L1443,20 C1499.00525,20 1527.00788,20 1548.39905,30.8993476 C1567.21526,40.4866851 1582.51331,55.7847407 1592.10065,74.60095 C1603,95.9921241 1603,123.994749 1603,180 L1603,1460 C1603,1516.00525 1603,1544.00788 1592.10065,1565.39905 C1582.51331,1584.21526 1567.21526,1599.51331 1548.39905,1609.10065 C1527.00788,1620 1499.00525,1620 1443,1620 L163,1620 C106.994749,1620 78.9921241,1620 57.60095,1609.10065 C38.7847407,1599.51331 23.4866851,1584.21526 13.8993476,1565.39905 C3,1544.00788 3,1516.00525 3,1460 L3,180 C3,123.994749 3,95.9921241 13.8993476,74.60095 C23.4866851,55.7847407 38.7847407,40.4866851 57.60095,30.8993476 C78.9921241,20 106.994749,20 163,20 Z" id="Rectangle-2-Copy-8" fill="#000000" opacity="0"></path>
                <line x1="944.857143" y1="369.663944" x2="802.554648" y2="796.571429" id="+E" stroke="#000000" stroke-width="100" stroke-linecap="round" transform="translate(873.7059, 583.1177) scale(1, -1) translate(-873.7059, -583.1177)"></line>
                <line x1="944.857143" y1="842.663944" x2="802.554648" y2="1269.57143" id="+E-Copy-2" stroke="#000000" stroke-width="100" stroke-linecap="round" transform="translate(873.7059, 1056.1177) scale(-1, -1) translate(-873.7059, -1056.1177)"></line>
                <line x1="945.302495" y1="393.092516" x2="660.697505" y2="1246.90748" id="+E-Copy-3" stroke="#000000" stroke-width="100" stroke-linecap="round" transform="translate(803, 820) scale(1, -1) rotate(-108.4349) translate(-803, -820)"></line>
                <line x1="802.857143" y1="369.75646" x2="660.554648" y2="796.663944" id="+E-Copy" stroke="#000000" stroke-width="100" stroke-linecap="round"></line>
                <line x1="802.857143" y1="842.75646" x2="660.554648" y2="1269.66394" id="+E-Copy-4" stroke="#000000" stroke-width="100" stroke-linecap="round" transform="translate(731.7059, 1056.2102) scale(-1, 1) translate(-731.7059, -1056.2102)"></line>
            </g>
            <g id="xLeft" transform="translate(3200, 5200) rotate(-90) translate(-3200, -5200)translate(2400, 4400)">
                <path d="M160,0 L1440,0 C1496.00525,0 1524.00788,0 1545.39905,10.8993476 C1564.21526,20.4866851 1579.51331,35.7847407 1589.10065,54.60095 C1600,75.9921241 1600,103.994749 1600,160 L1600,1440 C1600,1496.00525 1600,1524.00788 1589.10065,1545.39905 C1579.51331,1564.21526 1564.21526,1579.51331 1545.39905,1589.10065 C1524.00788,1600 1496.00525,1600 1440,1600 L160,1600 C103.994749,1600 75.9921241,1600 54.60095,1589.10065 C35.7847407,1579.51331 20.4866851,1564.21526 10.8993476,1545.39905 C0,1524.00788 0,1496.00525 0,1440 L0,160 C0,103.994749 0,75.9921241 10.8993476,54.60095 C20.4866851,35.7847407 35.7847407,20.4866851 54.60095,10.8993476 C75.9921241,0 103.994749,0 160,0 Z" id="Rectangle-2-Copy-8" fill="#000000" opacity="0"></path>
                <line x1="941.857143" y1="349.663944" x2="799.554648" y2="776.571429" id="+E" stroke="#000000" stroke-width="100" stroke-linecap="round" transform="translate(870.7059, 563.1177) scale(1, -1) translate(-870.7059, -563.1177)"></line>
                <line x1="874.376264" y1="788.592375" x2="725.329298" y2="1237.1416" id="+E-Copy-2" stroke="#000000" stroke-width="100" stroke-linecap="round" transform="translate(799.7713, 1013.0924) scale(1, -1) rotate(-18.4349) translate(-799.7713, -1013.0924)"></line>
                <line x1="844.961287" y1="642.245929" x2="755.152601" y2="911.671985" id="+E-Copy-3" stroke="#000000" stroke-width="100" stroke-linecap="round" transform="translate(799.8962, 776.7959) scale(1, -1) rotate(-108.4349) translate(-799.8962, -776.7959)"></line>
                <line x1="799.857143" y1="349.75646" x2="657.554648" y2="776.663944" id="+E-Copy" stroke="#000000" stroke-width="100" stroke-linecap="round"></line>
            </g>
            <g id="+" transform="translate(2400, 2400)">
                <path d="M160,0 L1440,0 C1496.00525,0 1524.00788,0 1545.39905,10.8993476 C1564.21526,20.4866851 1579.51331,35.7847407 1589.10065,54.60095 C1600,75.9921241 1600,103.994749 1600,160 L1600,1440 C1600,1496.00525 1600,1524.00788 1589.10065,1545.39905 C1579.51331,1564.21526 1564.21526,1579.51331 1545.39905,1589.10065 C1524.00788,1600 1496.00525,1600 1440,1600 L160,1600 C103.994749,1600 75.9921241,1600 54.60095,1589.10065 C35.7847407,1579.51331 20.4866851,1564.21526 10.8993476,1545.39905 C0,1524.00788 0,1496.00525 0,1440 L0,160 C0,103.994749 0,75.9921241 10.8993476,54.60095 C20.4866851,35.7847407 35.7847407,20.4866851 54.60095,10.8993476 C75.9921241,0 103.994749,0 160,0 Z" id="Rectangle-2-Copy-5" fill="#000000" opacity="0"></path>
                <line x1="942.302495" y1="373.338564" x2="657.697505" y2="1227.15353" id="+E-Copy" stroke="#000000" stroke-width="100" stroke-linecap="round" transform="translate(800, 800.246) rotate(-18.4349) translate(-800, -800.246)"></line>
                <line x1="942.302495" y1="373.338564" x2="657.697505" y2="1227.15353" id="+E-Copy-2" stroke="#000000" stroke-width="100" stroke-linecap="round" transform="translate(800, 800.246) rotate(-108.4349) translate(-800, -800.246)"></line>
            </g>
            <g id="xRight" transform="translate(3200, 1200) rotate(90) translate(-3200, -1200)translate(2400, 400)">
                <path d="M160,0 L1440,0 C1496.00525,0 1524.00788,0 1545.39905,10.8993476 C1564.21526,20.4866851 1579.51331,35.7847407 1589.10065,54.60095 C1600,75.9921241 1600,103.994749 1600,160 L1600,1440 C1600,1496.00525 1600,1524.00788 1589.10065,1545.39905 C1579.51331,1564.21526 1564.21526,1579.51331 1545.39905,1589.10065 C1524.00788,1600 1496.00525,1600 1440,1600 L160,1600 C103.994749,1600 75.9921241,1600 54.60095,1589.10065 C35.7847407,1579.51331 20.4866851,1564.21526 10.8993476,1545.39905 C0,1524.00788 0,1496.00525 0,1440 L0,160 C0,103.994749 0,75.9921241 10.8993476,54.60095 C20.4866851,35.7847407 35.7847407,20.4866851 54.60095,10.8993476 C75.9921241,0 103.994749,0 160,0 Z" id="Rectangle-2-Copy-8" fill="#000000" opacity="0"></path>
                <line x1="941.857143" y1="349.663944" x2="799.554648" y2="776.571429" id="+E" stroke="#000000" stroke-width="100" stroke-linecap="round" transform="translate(870.7059, 563.1177) scale(1, -1) translate(-870.7059, -563.1177)"></line>
                <line x1="874.376264" y1="788.592375" x2="725.329298" y2="1237.1416" id="+E-Copy-2" stroke="#000000" stroke-width="100" stroke-linecap="round" transform="translate(799.7713, 1013.0924) scale(1, -1) rotate(-18.4349) translate(-799.7713, -1013.0924)"></line>
                <line x1="844.961287" y1="642.245929" x2="755.152601" y2="911.671985" id="+E-Copy-3" stroke="#000000" stroke-width="100" stroke-linecap="round" transform="translate(799.8962, 776.7959) scale(1, -1) rotate(-108.4349) translate(-799.8962, -776.7959)"></line>
                <line x1="799.857143" y1="349.75646" x2="657.554648" y2="776.663944" id="+E-Copy" stroke="#000000" stroke-width="100" stroke-linecap="round"></line>
            </g>
            <g id="\" transform="translate(400, 4400)">
                <path d="M160,0 L1440,0 C1496.00525,0 1524.00788,0 1545.39905,10.8993476 C1564.21526,20.4866851 1579.51331,35.7847407 1589.10065,54.60095 C1600,75.9921241 1600,103.994749 1600,160 L1600,1440 C1600,1496.00525 1600,1524.00788 1589.10065,1545.39905 C1579.51331,1564.21526 1564.21526,1579.51331 1545.39905,1589.10065 C1524.00788,1600 1496.00525,1600 1440,1600 L160,1600 C103.994749,1600 75.9921241,1600 54.60095,1589.10065 C35.7847407,1579.51331 20.4866851,1564.21526 10.8993476,1545.39905 C0,1524.00788 0,1496.00525 0,1440 L0,160 C0,103.994749 0,75.9921241 10.8993476,54.60095 C20.4866851,35.7847407 35.7847407,20.4866851 54.60095,10.8993476 C75.9921241,0 103.994749,0 160,0 Z" id="Rectangle-2-Copy-8" fill="#000000" opacity="0"></path>
                <line x1="941.857143" y1="372.75646" x2="657.252153" y2="1226.57143" id="+E" stroke="#000000" stroke-width="100" stroke-linecap="round" transform="translate(799.5546, 799.6639) scale(1, -1) translate(-799.5546, -799.6639)"></line>
            </g>
            <g id="|" transform="translate(400, 2400)">
                <path d="M160,0 L1440,0 C1496.00525,0 1524.00788,0 1545.39905,10.8993476 C1564.21526,20.4866851 1579.51331,35.7847407 1589.10065,54.60095 C1600,75.9921241 1600,103.994749 1600,160 L1600,1440 C1600,1496.00525 1600,1524.00788 1589.10065,1545.39905 C1579.51331,1564.21526 1564.21526,1579.51331 1545.39905,1589.10065 C1524.00788,1600 1496.00525,1600 1440,1600 L160,1600 C103.994749,1600 75.9921241,1600 54.60095,1589.10065 C35.7847407,1579.51331 20.4866851,1564.21526 10.8993476,1545.39905 C0,1524.00788 0,1496.00525 0,1440 L0,160 C0,103.994749 0,75.9921241 10.8993476,54.60095 C20.4866851,35.7847407 35.7847407,20.4866851 54.60095,10.8993476 C75.9921241,0 103.994749,0 160,0 Z" id="Rectangle-2-Copy-4" fill="#000000" opacity="0"></path>
                <line x1="942.302495" y1="373.338564" x2="657.697505" y2="1227.15353" id="+E" stroke="#000000" stroke-width="100" stroke-linecap="round" transform="translate(800, 800.246) rotate(-18.4349) translate(-800, -800.246)"></line>
            </g>
            <g id="/" transform="translate(400, 400)">
                <path d="M160,0 L1440,0 C1496.00525,0 1524.00788,0 1545.39905,10.8993476 C1564.21526,20.4866851 1579.51331,35.7847407 1589.10065,54.60095 C1600,75.9921241 1600,103.994749 1600,160 L1600,1440 C1600,1496.00525 1600,1524.00788 1589.10065,1545.39905 C1579.51331,1564.21526 1564.21526,1579.51331 1545.39905,1589.10065 C1524.00788,1600 1496.00525,1600 1440,1600 L160,1600 C103.994749,1600 75.9921241,1600 54.60095,1589.10065 C35.7847407,1579.51331 20.4866851,1564.21526 10.8993476,1545.39905 C0,1524.00788 0,1496.00525 0,1440 L0,160 C0,103.994749 0,75.9921241 10.8993476,54.60095 C20.4866851,35.7847407 35.7847407,20.4866851 54.60095,10.8993476 C75.9921241,0 103.994749,0 160,0 Z" id="Rectangle-2" fill="#000000" opacity="0"></path>
                <line x1="941.857143" y1="373.428571" x2="657.252153" y2="1227.24354" id="+E" stroke="#000000" stroke-width="100" stroke-linecap="round"></line>
            </g>
        </g>
    </g>
</svg>