<?xml version="1.0" encoding="UTF-8"?>
<svg width="8160px" height="960px" viewBox="0 0 8160 960" version="1.1" xmlns="http://www.w3.org/2000/svg" xmlns:xlink="http://www.w3.org/1999/xlink">
    <title>TernaryCalculator</title>
    <g id="Page-1" stroke="none" stroke-width="1" fill="none" fill-rule="evenodd">
        <g id="Display-operators">
            <g id="=" transform="translate(7200, 0)">
                <path d="M96,0 L864,0 C897.60315,0 914.404726,0 927.23943,6.53960855 C938.529156,12.292011 947.707989,21.4708444 953.460391,32.76057 C960,45.5952745 960,62.3968496 960,96 L960,864 C960,897.60315 960,914.404726 953.460391,927.23943 C947.707989,938.529156 938.529156,947.707989 927.23943,953.460391 C914.404726,960 897.60315,960 864,960 L96,960 C62.3968496,960 45.5952745,960 32.76057,953.460391 C21.4708444,947.707989 12.292011,938.529156 6.53960855,927.23943 C0,914.404726 0,897.60315 0,864 L0,96 C0,62.3968496 0,45.5952745 6.53960855,32.76057 C12.292011,21.4708444 21.4708444,12.292011 32.76057,6.53960855 C45.5952745,0 62.3968496,0 96,0 Z" id="Rectangle-2-Copy-11" fill="#000000" opacity="0"></path>
                <line x1="565.381497" y1="344.003199" x2="394.618503" y2="856.29218" id="+E-Copy-7" stroke="#000000" stroke-width="60" stroke-linecap="round" transform="translate(480, 600.1477) rotate(-108.4349) translate(-480, -600.1477)"></line>
                <line x1="565.381497" y1="104.003139" x2="394.618503" y2="616.29212" id="+E-Copy-8" stroke="#000000" stroke-width="60" stroke-linecap="round" transform="translate(480, 360.1476) rotate(-108.4349) translate(-480, -360.1476)"></line>
            </g>
            <g id="Point" transform="translate(6000, 0)">
                <path d="M96,0 L864,0 C897.60315,0 914.404726,0 927.23943,6.53960855 C938.529156,12.292011 947.707989,21.4708444 953.460391,32.76057 C960,45.5952745 960,62.3968496 960,96 L960,864 C960,897.60315 960,914.404726 953.460391,927.23943 C947.707989,938.529156 938.529156,947.707989 927.23943,953.460391 C914.404726,960 897.60315,960 864,960 L96,960 C62.3968496,960 45.5952745,960 32.76057,953.460391 C21.4708444,947.707989 12.292011,938.529156 6.53960855,927.23943 C0,914.404726 0,897.60315 0,864 L0,96 C0,62.3968496 0,45.5952745 6.53960855,32.76057 C12.292011,21.4708444 21.4708444,12.292011 32.76057,6.53960855 C45.5952745,0 62.3968496,0 96,0 Z" id="Rectangle-2-Copy-10" fill="#000000" opacity="0"></path>
                <circle id="Oval" stroke="#000000" stroke-width="60" cx="480" cy="480" r="60"></circle>
            </g>
            <g id="flip" transform="translate(4080, 480) rotate(-90) translate(-4080, -480)translate(3600, 0)">
                <path d="M96,0 L864,0 C897.60315,0 914.404726,0 927.23943,6.53960855 C938.529156,12.292011 947.707989,21.4708444 953.460391,32.76057 C960,45.5952745 960,62.3968496 960,96 L960,864 C960,897.60315 960,914.404726 953.460391,927.23943 C947.707989,938.529156 938.529156,947.707989 927.23943,953.460391 C914.404726,960 897.60315,960 864,960 L96,960 C62.3968496,960 45.5952745,960 32.76057,953.460391 C21.4708444,947.707989 12.292011,938.529156 6.53960855,927.23943 C0,914.404726 0,897.60315 0,864 L0,96 C0,62.3968496 0,45.5952745 6.53960855,32.76057 C12.292011,21.4708444 21.4708444,12.292011 32.76057,6.53960855 C45.5952745,0 62.3968496,0 96,0 Z" id="Rectangle-2-Copy-8" fill="#000000" opacity="0"></path>
                <line x1="565.114286" y1="209.798367" x2="479.732789" y2="465.942857" id="+E" stroke="#000000" stroke-width="60" stroke-linecap="round" transform="translate(522.4235, 337.8706) scale(1, -1) translate(-522.4235, -337.8706)"></line>
                <line x1="565.114286" y1="493.598367" x2="479.732789" y2="749.742857" id="+E-Copy-2" stroke="#000000" stroke-width="60" stroke-linecap="round" transform="translate(522.4235, 621.6706) scale(-1, -1) translate(-522.4235, -621.6706)"></line>
                <line x1="565.381497" y1="223.85551" x2="394.618503" y2="736.14449" id="+E-Copy-3" stroke="#000000" stroke-width="60" stroke-linecap="round" transform="translate(480, 480) scale(1, -1) rotate(-108.4349) translate(-480, -480)"></line>
                <line x1="479.914286" y1="209.853876" x2="394.532789" y2="465.998367" id="+E-Copy" stroke="#000000" stroke-width="60" stroke-linecap="round"></line>
                <line x1="479.914286" y1="493.653876" x2="394.532789" y2="749.798367" id="+E-Copy-4" stroke="#000000" stroke-width="60" stroke-linecap="round" transform="translate(437.2235, 621.7261) scale(-1, 1) translate(-437.2235, -621.7261)"></line>
            </g>
            <g id="invert" transform="translate(4800, 0)">
                <path d="M96,0 L864,0 C897.60315,0 914.404726,0 927.23943,6.53960855 C938.529156,12.292011 947.707989,21.4708444 953.460391,32.76057 C960,45.5952745 960,62.3968496 960,96 L960,864 C960,897.60315 960,914.404726 953.460391,927.23943 C947.707989,938.529156 938.529156,947.707989 927.23943,953.460391 C914.404726,960 897.60315,960 864,960 L96,960 C62.3968496,960 45.5952745,960 32.76057,953.460391 C21.4708444,947.707989 12.292011,938.529156 6.53960855,927.23943 C0,914.404726 0,897.60315 0,864 L0,96 C0,62.3968496 0,45.5952745 6.53960855,32.76057 C12.292011,21.4708444 21.4708444,12.292011 32.76057,6.53960855 C45.5952745,0 62.3968496,0 96,0 Z" id="Rectangle-2-Copy-8" fill="#000000" opacity="0"></path>
                <line x1="565.114286" y1="209.798367" x2="479.732789" y2="465.942857" id="+E" stroke="#000000" stroke-width="60" stroke-linecap="round" transform="translate(522.4235, 337.8706) scale(1, -1) translate(-522.4235, -337.8706)"></line>
                <line x1="565.114286" y1="493.598367" x2="479.732789" y2="749.742857" id="+E-Copy-2" stroke="#000000" stroke-width="60" stroke-linecap="round" transform="translate(522.4235, 621.6706) scale(-1, -1) translate(-522.4235, -621.6706)"></line>
                <line x1="565.381497" y1="223.85551" x2="394.618503" y2="736.14449" id="+E-Copy-3" stroke="#000000" stroke-width="60" stroke-linecap="round" transform="translate(480, 480) scale(1, -1) rotate(-108.4349) translate(-480, -480)"></line>
                <line x1="479.914286" y1="209.853876" x2="394.532789" y2="465.998367" id="+E-Copy" stroke="#000000" stroke-width="60" stroke-linecap="round"></line>
                <line x1="479.914286" y1="493.653876" x2="394.532789" y2="749.798367" id="+E-Copy-4" stroke="#000000" stroke-width="60" stroke-linecap="round" transform="translate(437.2235, 621.7261) scale(-1, 1) translate(-437.2235, -621.7261)"></line>
            </g>
            <g id="xLeft" transform="translate(2880, 480) rotate(-90) translate(-2880, -480)translate(2400, 0)">
                <path d="M96,0 L864,0 C897.60315,0 914.404726,0 927.23943,6.53960855 C938.529156,12.292011 947.707989,21.4708444 953.460391,32.76057 C960,45.5952745 960,62.3968496 960,96 L960,864 C960,897.60315 960,914.404726 953.460391,927.23943 C947.707989,938.529156 938.529156,947.707989 927.23943,953.460391 C914.404726,960 897.60315,960 864,960 L96,960 C62.3968496,960 45.5952745,960 32.76057,953.460391 C21.4708444,947.707989 12.292011,938.529156 6.53960855,927.23943 C0,914.404726 0,897.60315 0,864 L0,96 C0,62.3968496 0,45.5952745 6.53960855,32.76057 C12.292011,21.4708444 21.4708444,12.292011 32.76057,6.53960855 C45.5952745,0 62.3968496,0 96,0 Z" id="Rectangle-2-Copy-8" fill="#000000" opacity="0"></path>
                <line x1="565.114286" y1="209.798367" x2="479.732789" y2="465.942857" id="+E" stroke="#000000" stroke-width="60" stroke-linecap="round" transform="translate(522.4235, 337.8706) scale(1, -1) translate(-522.4235, -337.8706)"></line>
                <line x1="524.625758" y1="473.155425" x2="435.197579" y2="742.284958" id="+E-Copy-2" stroke="#000000" stroke-width="60" stroke-linecap="round" transform="translate(479.8628, 607.8554) scale(1, -1) rotate(-18.4349) translate(-479.8628, -607.8554)"></line>
                <line x1="506.976772" y1="385.347557" x2="453.091561" y2="547.003191" id="+E-Copy-3" stroke="#000000" stroke-width="60" stroke-linecap="round" transform="translate(479.9377, 466.0776) scale(1, -1) rotate(-108.4349) translate(-479.9377, -466.0776)"></line>
                <line x1="479.914286" y1="209.853876" x2="394.532789" y2="465.998367" id="+E-Copy" stroke="#000000" stroke-width="60" stroke-linecap="round"></line>
            </g>
            <g id="+">
                <path d="M96,0 L864,0 C897.60315,0 914.404726,0 927.23943,6.53960855 C938.529156,12.292011 947.707989,21.4708444 953.460391,32.76057 C960,45.5952745 960,62.3968496 960,96 L960,864 C960,897.60315 960,914.404726 953.460391,927.23943 C947.707989,938.529156 938.529156,947.707989 927.23943,953.460391 C914.404726,960 897.60315,960 864,960 L96,960 C62.3968496,960 45.5952745,960 32.76057,953.460391 C21.4708444,947.707989 12.292011,938.529156 6.53960855,927.23943 C0,914.404726 0,897.60315 0,864 L0,96 C0,62.3968496 0,45.5952745 6.53960855,32.76057 C12.292011,21.4708444 21.4708444,12.292011 32.76057,6.53960855 C45.5952745,0 62.3968496,0 96,0 Z" id="Rectangle-2-Copy-5" fill="#000000" opacity="0"></path>
                <line x1="565.381497" y1="224.003139" x2="394.618503" y2="736.29212" id="+E-Copy" stroke="#000000" stroke-width="60" stroke-linecap="round" transform="translate(480, 480.1476) rotate(-18.4349) translate(-480, -480.1476)"></line>
                <line x1="565.381497" y1="224.003139" x2="394.618503" y2="736.29212" id="+E-Copy-2" stroke="#000000" stroke-width="60" stroke-linecap="round" transform="translate(480, 480.1476) rotate(-108.4349) translate(-480, -480.1476)"></line>
            </g>
            <g id="xRight" transform="translate(1680, 480) rotate(90) translate(-1680, -480)translate(1200, 0)">
                <path d="M96,0 L864,0 C897.60315,0 914.404726,0 927.23943,6.53960855 C938.529156,12.292011 947.707989,21.4708444 953.460391,32.76057 C960,45.5952745 960,62.3968496 960,96 L960,864 C960,897.60315 960,914.404726 953.460391,927.23943 C947.707989,938.529156 938.529156,947.707989 927.23943,953.460391 C914.404726,960 897.60315,960 864,960 L96,960 C62.3968496,960 45.5952745,960 32.76057,953.460391 C21.4708444,947.707989 12.292011,938.529156 6.53960855,927.23943 C0,914.404726 0,897.60315 0,864 L0,96 C0,62.3968496 0,45.5952745 6.53960855,32.76057 C12.292011,21.4708444 21.4708444,12.292011 32.76057,6.53960855 C45.5952745,0 62.3968496,0 96,0 Z" id="Rectangle-2-Copy-8" fill="#000000" opacity="0"></path>
                <line x1="565.114286" y1="209.798367" x2="479.732789" y2="465.942857" id="+E" stroke="#000000" stroke-width="60" stroke-linecap="round" transform="translate(522.4235, 337.8706) scale(1, -1) translate(-522.4235, -337.8706)"></line>
                <line x1="524.625758" y1="473.155425" x2="435.197579" y2="742.284958" id="+E-Copy-2" stroke="#000000" stroke-width="60" stroke-linecap="round" transform="translate(479.8628, 607.8554) scale(1, -1) rotate(-18.4349) translate(-479.8628, -607.8554)"></line>
                <line x1="506.976772" y1="385.347557" x2="453.091561" y2="547.003191" id="+E-Copy-3" stroke="#000000" stroke-width="60" stroke-linecap="round" transform="translate(479.9377, 466.0776) scale(1, -1) rotate(-108.4349) translate(-479.9377, -466.0776)"></line>
                <line x1="479.914286" y1="209.853876" x2="394.532789" y2="465.998367" id="+E-Copy" stroke="#000000" stroke-width="60" stroke-linecap="round"></line>
            </g>
        </g>
    </g>
</svg>