<?xml version="1.0" encoding="UTF-8"?>
<svg width="12000px" height="18000px" viewBox="0 0 12000 18000" version="1.1" xmlns="http://www.w3.org/2000/svg" xmlns:xlink="http://www.w3.org/1999/xlink">
    <title>TernaryCalculator</title>
    <g id="Page-1" stroke="none" stroke-width="1" fill="none" fill-rule="evenodd">
        <g id="Calculator-" transform="translate(1350, 1700)">
            <path d="M-1030,-1700 L10330,-1700 C10442.0105,-1700 10498.0158,-1700 10540.7981,-1678.2013 C10578.4305,-1659.02663 10609.0266,-1628.43052 10628.2013,-1590.7981 C10650,-1548.01575 10650,-1492.0105 10650,-1380 L10650,15980 C10650,16092.0105 10650,16148.0158 10628.2013,16190.7981 C10609.0266,16228.4305 10578.4305,16259.0266 10540.7981,16278.2013 C10498.0158,16300 10442.0105,16300 10330,16300 L-1030,16300 C-1142.0105,16300 -1198.01575,16300 -1240.7981,16278.2013 C-1278.43052,16259.0266 -1309.02663,16228.4305 -1328.2013,16190.7981 C-1350,16148.0158 -1350,16092.0105 -1350,15980 L-1350,-1380 C-1350,-1492.0105 -1350,-1548.01575 -1328.2013,-1590.7981 C-1309.02663,-1628.43052 -1278.43052,-1659.02663 -1240.7981,-1678.2013 C-1198.01575,-1700 -1142.0105,-1700 -1030,-1700 Z" id="Rectangle-3" fill="#88ACA2"></path>
            <path d="M320,0 L8980,0 C9092.0105,0 9148.01575,0 9190.7981,21.7986952 C9228.43052,40.9733702 9259.02663,71.5694815 9278.2013,109.2019 C9300,151.984248 9300,207.989499 9300,320 L9300,14280 C9300,14392.0105 9300,14448.0158 9278.2013,14490.7981 C9259.02663,14528.4305 9228.43052,14559.0266 9190.7981,14578.2013 C9148.01575,14600 9092.0105,14600 8980,14600 L320,14600 C207.989499,14600 151.984248,14600 109.2019,14578.2013 C71.5694815,14559.0266 40.9733702,14528.4305 21.7986952,14490.7981 C0,14448.0158 0,14392.0105 0,14280 L0,320 C0,207.989499 0,151.984248 21.7986952,109.2019 C40.9733702,71.5694815 71.5694815,40.9733702 109.2019,21.7986952 C151.984248,0 207.989499,0 320,0 Z" id="Rectangle-2" fill="#000000"></path>
            <g id="Keypad" transform="translate(450, 7750)" stroke="#ECD9AF">
                <path d="M8307.7156,-23.5545543 C8327.96467,-21.9001403 8343.07961,-18.3406223 8356.74881,-11.3758087 L8365.35741,-6.5524896 C8384.93818,5.45771268 8400.88967,22.6709586 8411.37582,43.2511875 C8418.34062,56.9203905 8421.90014,72.0353338 8423.55455,92.2843992 C8424.79142,107.422955 8425,120.693334 8425,160 L8425,6240 C8425,6279.30667 8424.79142,6292.57705 8423.55455,6307.7156 C8421.90014,6327.96467 8418.34062,6343.07961 8411.37582,6356.74881 C8399.39164,6380.26907 8380.26907,6399.39164 8356.74881,6411.37582 C8343.07961,6418.34062 8327.96467,6421.90014 8307.7156,6423.55455 C8292.57705,6424.79142 8279.30667,6425 8240,6425 L160,6425 C120.693334,6425 107.422955,6424.79142 92.2843992,6423.55455 C72.0353338,6421.90014 56.9203905,6418.34062 43.2511875,6411.37582 C19.7309259,6399.39164 0.608356345,6380.26907 -11.3758155,6356.74881 C-18.3406223,6343.07961 -21.9001403,6327.96467 -23.5545543,6307.7156 C-24.7914232,6292.57705 -25,6279.30667 -25,6240 L-25,160 C-25,120.693334 -24.7914232,107.422955 -23.5545543,92.2843992 C-21.9001403,72.0353338 -18.3406223,56.9203905 -11.3758155,43.2511875 C0.608356345,19.7309259 19.7309259,0.608356345 43.2511875,-11.3758155 C56.9203905,-18.3406223 72.0353338,-21.9001403 92.2843992,-23.5545543 C107.422955,-24.7914232 120.693334,-25 160,-25 L8240,-25 C8279.30667,-25 8292.57705,-24.7914232 8307.7156,-23.5545543 Z" id="Keypad-background" stroke-width="50" fill="#F08537"></path>
                <g id="=" transform="translate(6400, 4400)">
                    <path d="M1440,25 C1477.70055,25 1490.43471,25.2001487 1503.64401,26.2793912 C1517.04317,27.374146 1525.84293,29.3176662 1532.70246,32.5176426 L1534.04929,33.1745115 C1548.16144,40.3650138 1559.63499,51.8385556 1566.82549,65.9507125 C1570.41943,73.0042094 1572.55287,82.0635536 1573.72061,96.3559934 C1574.79985,109.565294 1575,122.299446 1575,160 L1575,1440 C1575,1477.70055 1574.79985,1490.43471 1573.72061,1503.64401 C1572.55287,1517.93645 1570.41943,1526.99579 1566.82549,1534.04929 C1559.63499,1548.16144 1548.16144,1559.63499 1534.04929,1566.82549 C1526.99579,1570.41943 1517.93645,1572.55287 1503.64401,1573.72061 C1490.43471,1574.79985 1477.70055,1575 1440,1575 L160,1575 C122.299446,1575 109.565294,1574.79985 96.3559934,1573.72061 C82.0635536,1572.55287 73.0042094,1570.41943 65.9507125,1566.82549 C51.8385556,1559.63499 40.3650138,1548.16144 33.1745107,1534.04929 C29.5805745,1526.99579 27.4471297,1517.93645 26.2793912,1503.64401 C25.2001487,1490.43471 25,1477.70055 25,1440 L25,160 C25,122.299446 25.2001487,109.565294 26.2793912,96.3559934 C27.4471297,82.0635536 29.5805745,73.0042094 33.1745107,65.9507125 C40.3650138,51.8385556 51.8385556,40.3650138 65.9507125,33.1745107 C78.8093768,26.622694 95.3518482,25.046768 149.842189,25.0026538 L160.00654,24.9999991 Z" id="Rectangle-2-Copy-11" stroke-width="50" fill="#000000"></path>
                    <g id="Group" transform="translate(349.6975, 599.3386)" stroke-linecap="round" stroke-width="100">
                        <line x1="592.604989" y1="-25.9999" x2="308" y2="827.815068" id="+E-Copy-7" transform="translate(450.3025, 400.9076) rotate(-108.4349) translate(-450.3025, -400.9076)"></line>
                        <line x1="592.604989" y1="-426" x2="308" y2="427.814968" id="+E-Copy-8" transform="translate(450.3025, 0.9075) rotate(-108.4349) translate(-450.3025, -0.9075)"></line>
                    </g>
                </g>
                <g id="Tri-trit" transform="translate(6400, 2399.3386)">
                    <path d="M1503.64401,26.9408268 C1517.04317,28.0355816 1525.84293,29.9791018 1532.70246,33.1790781 L1534.04929,33.835947 C1548.16144,41.0264494 1559.63499,52.4999911 1566.82549,66.6121481 C1570.41943,73.665645 1572.55287,82.7249891 1573.72061,97.017429 C1574.79985,110.226729 1575,122.960882 1575,160.661436 L1575,1440.66144 C1575,1478.36199 1574.79985,1491.09614 1573.72061,1504.30544 C1572.55287,1518.59788 1570.41943,1527.65723 1566.82549,1534.71072 C1559.63499,1548.82288 1548.16144,1560.29642 1534.04929,1567.48692 C1526.99579,1571.08086 1517.93645,1573.21431 1503.64401,1574.38204 C1490.43471,1575.46129 1477.70055,1575.66144 1440,1575.66144 L160,1575.66144 C122.299446,1575.66144 109.565294,1575.46129 96.3559934,1574.38204 C82.0635536,1573.21431 73.0042094,1571.08086 65.9507125,1567.48692 C51.8385556,1560.29642 40.3650138,1548.82288 33.1745107,1534.71072 C29.5805745,1527.65723 27.4471297,1518.59788 26.2793912,1504.30544 C25.2001487,1491.09614 25,1478.36199 25,1440.66144 L25,160.661436 C25,122.960882 25.2001487,110.226729 26.2793912,97.017429 C27.4471297,82.7249891 29.5805745,73.665645 33.1745107,66.6121481 C40.3650138,52.4999911 51.8385556,41.0264494 65.9507125,33.8359463 C78.8093766,27.2841296 95.351847,25.7082036 149.84219,25.6640887 L160.006536,25.6614354 L1440,25.6614356 C1477.70055,25.6614356 1490.43471,25.8615843 1503.64401,26.9408268 Z" id="Rectangle-2-Copy-7" stroke-width="50" fill="#000000"></path>
                    <line x1="942.302495" y1="-76" x2="657.697505" y2="777.814968" id="+E-Copy-9" stroke-width="100" stroke-linecap="round" transform="translate(800, 350.9075) rotate(-108.4349) translate(-800, -350.9075)"></line>
                    <line x1="942.302495" y1="824" x2="657.697505" y2="1677.81497" id="+E-Copy-10" stroke-width="100" stroke-linecap="round" transform="translate(800, 1250.9075) rotate(-108.4349) translate(-800, -1250.9075)"></line>
                    <line x1="492.302495" y1="374" x2="207.697505" y2="1227.81497" id="+E-Copy-11" stroke-width="100" stroke-linecap="round" transform="translate(350, 800.9075) rotate(-18.4349) translate(-350, -800.9075)"></line>
                    <line x1="1392.30249" y1="374" x2="1107.69751" y2="1227.81497" id="+E-Copy-12" stroke-width="100" stroke-linecap="round" transform="translate(1250, 800.9075) rotate(-18.4349) translate(-1250, -800.9075)"></line>
                </g>
                <g id="Clear" transform="translate(6400, 400)">
                    <path d="M1440,25 C1477.70055,25 1490.43471,25.2001487 1503.64401,26.2793912 C1517.04317,27.374146 1525.84293,29.3176662 1532.70246,32.5176426 L1534.04929,33.1745115 C1548.16144,40.3650138 1559.63499,51.8385556 1566.82549,65.9507125 C1570.41943,73.0042094 1572.55287,82.0635536 1573.72061,96.3559934 C1574.79985,109.565294 1575,122.299446 1575,160 L1575,1440 C1575,1477.70055 1574.79985,1490.43471 1573.72061,1503.64401 C1572.55287,1517.93645 1570.41943,1526.99579 1566.82549,1534.04929 C1559.63499,1548.16144 1548.16144,1559.63499 1534.04929,1566.82549 C1526.99579,1570.41943 1517.93645,1572.55287 1503.64401,1573.72061 C1490.43471,1574.79985 1477.70055,1575 1440,1575 L160,1575 C122.299446,1575 109.565294,1574.79985 96.3559934,1573.72061 C82.0635536,1572.55287 73.0042094,1570.41943 65.9507125,1566.82549 C51.8385556,1559.63499 40.3650138,1548.16144 33.1745107,1534.04929 C29.5805745,1526.99579 27.4471297,1517.93645 26.2793912,1503.64401 C25.2001487,1490.43471 25,1477.70055 25,1440 L25,160 C25,122.299446 25.2001487,109.565294 26.2793912,96.3559934 C27.4471297,82.0635536 29.5805745,73.0042094 33.1745107,65.9507125 C40.3650138,51.8385556 51.8385556,40.3650138 65.9507125,33.1745107 C78.8093768,26.622694 95.3518482,25.046768 149.842189,25.0026538 L160.00654,24.9999991 Z" id="Rectangle-2-Copy-3" stroke-width="50" fill="#000000"></path>
                    <g id="Group" transform="translate(800.2522, 800.4286) rotate(-90) translate(-800.2522, -800.4286)translate(515.2522, 373.4286)" stroke-linecap="round" stroke-width="100">
                        <line x1="284.604989" y1="0" x2="-1.23427739e-16" y2="853.814968" id="+E-Copy"></line>
                        <line x1="569.604989" y1="0" x2="285" y2="853.814968" id="+E-Copy-2" transform="translate(427.3025, 426.9075) scale(-1, 1) translate(-427.3025, -426.9075)"></line>
                    </g>
                </g>
                <g id="Point" transform="translate(4400, 4400)" fill="#000000">
                    <path d="M1440,25 C1477.70055,25 1490.43471,25.2001487 1503.64401,26.2793912 C1517.04317,27.374146 1525.84293,29.3176662 1532.70246,32.5176426 L1534.04929,33.1745115 C1548.16144,40.3650138 1559.63499,51.8385556 1566.82549,65.9507125 C1570.41943,73.0042094 1572.55287,82.0635536 1573.72061,96.3559934 C1574.79985,109.565294 1575,122.299446 1575,160 L1575,1440 C1575,1477.70055 1574.79985,1490.43471 1573.72061,1503.64401 C1572.55287,1517.93645 1570.41943,1526.99579 1566.82549,1534.04929 C1559.63499,1548.16144 1548.16144,1559.63499 1534.04929,1566.82549 C1526.99579,1570.41943 1517.93645,1572.55287 1503.64401,1573.72061 C1490.43471,1574.79985 1477.70055,1575 1440,1575 L160,1575 C122.299446,1575 109.565294,1574.79985 96.3559934,1573.72061 C82.0635536,1572.55287 73.0042094,1570.41943 65.9507125,1566.82549 C51.8385556,1559.63499 40.3650138,1548.16144 33.1745107,1534.04929 C29.5805745,1526.99579 27.4471297,1517.93645 26.2793912,1503.64401 C25.2001487,1490.43471 25,1477.70055 25,1440 L25,160 C25,122.299446 25.2001487,109.565294 26.2793912,96.3559934 C27.4471297,82.0635536 29.5805745,73.0042094 33.1745107,65.9507125 C40.3650138,51.8385556 51.8385556,40.3650138 65.9507125,33.1745107 C78.8093768,26.622694 95.3518482,25.046768 149.842189,25.0026538 L160.00654,24.9999991 Z" id="Rectangle-2-Copy-10" stroke-width="50"></path>
                    <circle id="Oval" stroke-width="100" cx="800" cy="800" r="100"></circle>
                </g>
                <g id="xLeft" transform="translate(3200, 5200) rotate(-90) translate(-3200, -5200)translate(2400, 4400)">
                    <path d="M1440,25 C1477.70055,25 1490.43471,25.2001487 1503.64401,26.2793912 C1517.04317,27.374146 1525.84293,29.3176662 1532.70246,32.5176426 L1534.04929,33.1745115 C1548.16144,40.3650138 1559.63499,51.8385556 1566.82549,65.9507125 C1570.41943,73.0042094 1572.55287,82.0635536 1573.72061,96.3559934 C1574.79985,109.565294 1575,122.299446 1575,160 L1575,1440 C1575,1477.70055 1574.79985,1490.43471 1573.72061,1503.64401 C1572.55287,1517.93645 1570.41943,1526.99579 1566.82549,1534.04929 C1559.63499,1548.16144 1548.16144,1559.63499 1534.04929,1566.82549 C1526.99579,1570.41943 1517.93645,1572.55287 1503.64401,1573.72061 C1490.43471,1574.79985 1477.70055,1575 1440,1575 L160,1575 C122.299446,1575 109.565294,1574.79985 96.3559934,1573.72061 C82.0635536,1572.55287 73.0042094,1570.41943 65.9507125,1566.82549 C51.8385556,1559.63499 40.3650138,1548.16144 33.1745107,1534.04929 C29.5805745,1526.99579 27.4471297,1517.93645 26.2793912,1503.64401 C25.2001487,1490.43471 25,1477.70055 25,1440 L25,160 C25,122.299446 25.2001487,109.565294 26.2793912,96.3559934 C27.4471297,82.0635536 29.5805745,73.0042094 33.1745107,65.9507125 C40.3650138,51.8385556 51.8385556,40.3650138 65.9507125,33.1745107 C78.8093768,26.622694 95.3518482,25.046768 149.842189,25.0026538 L160.00654,24.9999991 Z" id="Rectangle-2-Copy-8" stroke-width="50" fill="#000000"></path>
                    <line x1="941.857143" y1="349.663944" x2="799.554648" y2="776.571429" id="+E" stroke-width="100" stroke-linecap="round" transform="translate(870.7059, 563.1177) scale(1, -1) translate(-870.7059, -563.1177)"></line>
                    <line x1="874.376264" y1="788.592375" x2="725.329298" y2="1237.1416" id="+E-Copy-2" stroke-width="100" stroke-linecap="round" transform="translate(799.7713, 1013.0924) scale(1, -1) rotate(-18.4349) translate(-799.7713, -1013.0924)"></line>
                    <line x1="844.961287" y1="642.245929" x2="755.152601" y2="911.671985" id="+E-Copy-3" stroke-width="100" stroke-linecap="round" transform="translate(799.8962, 776.7959) scale(1, -1) rotate(-108.4349) translate(-799.8962, -776.7959)"></line>
                    <line x1="799.857143" y1="349.75646" x2="657.554648" y2="776.663944" id="+E-Copy" stroke-width="100" stroke-linecap="round"></line>
                </g>
                <g id="invert" transform="translate(5180, 3203) rotate(-90) translate(-5180, -3203)translate(4380, 2403)">
                    <path d="M1443,45 C1480.70055,45 1493.43471,45.2001487 1506.64401,46.2793912 C1520.04317,47.374146 1528.84293,49.3176662 1535.70246,52.5176426 L1537.04929,53.1745115 C1551.16144,60.3650138 1562.63499,71.8385556 1569.82549,85.9507125 C1573.41943,93.0042094 1575.55287,102.063554 1576.72061,116.355993 C1577.79985,129.565294 1578,142.299446 1578,180 L1578,1460 C1578,1497.70055 1577.79985,1510.43471 1576.72061,1523.64401 C1575.55287,1537.93645 1573.41943,1546.99579 1569.82549,1554.04929 C1562.63499,1568.16144 1551.16144,1579.63499 1537.04929,1586.82549 C1529.99579,1590.41943 1520.93645,1592.55287 1506.64401,1593.72061 C1493.43471,1594.79985 1480.70055,1595 1443,1595 L163,1595 C125.299446,1595 112.565294,1594.79985 99.3559934,1593.72061 C85.0635536,1592.55287 76.0042094,1590.41943 68.9507125,1586.82549 C54.8385556,1579.63499 43.3650138,1568.16144 36.1745107,1554.04929 C32.5805745,1546.99579 30.4471297,1537.93645 29.2793912,1523.64401 C28.2001487,1510.43471 28,1497.70055 28,1460 L28,180 C28,142.299446 28.2001487,129.565294 29.2793912,116.355993 C30.4471297,102.063554 32.5805745,93.0042094 36.1745107,85.9507125 C43.3650138,71.8385556 54.8385556,60.3650138 68.9507125,53.1745107 C81.8093768,46.622694 98.3518482,45.046768 152.842189,45.0026538 L163.00654,44.9999991 Z" id="Rectangle-2-Copy-8" stroke-width="50" fill="#000000"></path>
                    <g id="Group" transform="translate(352.5546, 368.6639)" stroke-linecap="round" stroke-width="100">
                        <line x1="592.302495" y1="1" x2="450" y2="427.907484" id="+E" transform="translate(521.1512, 214.4537) scale(1, -1) translate(-521.1512, -214.4537)"></line>
                        <line x1="592.302495" y1="474" x2="450" y2="900.907484" id="+E-Copy-2" transform="translate(521.1512, 687.4537) scale(-1, -1) translate(-521.1512, -687.4537)"></line>
                        <line x1="592.747847" y1="24.4285714" x2="308.142857" y2="878.24354" id="+E-Copy-3" transform="translate(450.4454, 451.3361) scale(1, -1) rotate(-108.4349) translate(-450.4454, -451.3361)"></line>
                        <line x1="450.302495" y1="1.09251588" x2="308" y2="428" id="+E-Copy"></line>
                        <line x1="450.302495" y1="474.092516" x2="308" y2="901" id="+E-Copy-4" transform="translate(379.1512, 687.5463) scale(-1, 1) translate(-379.1512, -687.5463)"></line>
                    </g>
                </g>
                <g id="mirror" transform="translate(4397, 380)">
                    <path d="M1443,45 C1480.70055,45 1493.43471,45.2001487 1506.64401,46.2793912 C1520.04317,47.374146 1528.84293,49.3176662 1535.70246,52.5176426 L1537.04929,53.1745115 C1551.16144,60.3650138 1562.63499,71.8385556 1569.82549,85.9507125 C1573.41943,93.0042094 1575.55287,102.063554 1576.72061,116.355993 C1577.79985,129.565294 1578,142.299446 1578,180 L1578,1460 C1578,1497.70055 1577.79985,1510.43471 1576.72061,1523.64401 C1575.55287,1537.93645 1573.41943,1546.99579 1569.82549,1554.04929 C1562.63499,1568.16144 1551.16144,1579.63499 1537.04929,1586.82549 C1529.99579,1590.41943 1520.93645,1592.55287 1506.64401,1593.72061 C1493.43471,1594.79985 1480.70055,1595 1443,1595 L163,1595 C125.299446,1595 112.565294,1594.79985 99.3559934,1593.72061 C85.0635536,1592.55287 76.0042094,1590.41943 68.9507125,1586.82549 C54.8385556,1579.63499 43.3650138,1568.16144 36.1745107,1554.04929 C32.5805745,1546.99579 30.4471297,1537.93645 29.2793912,1523.64401 C28.2001487,1510.43471 28,1497.70055 28,1460 L28,180 C28,142.299446 28.2001487,129.565294 29.2793912,116.355993 C30.4471297,102.063554 32.5805745,93.0042094 36.1745107,85.9507125 C43.3650138,71.8385556 54.8385556,60.3650138 68.9507125,53.1745107 C81.8093768,46.622694 98.3518482,45.046768 152.842189,45.0026538 L163.00654,44.9999991 Z" id="Rectangle-2-Copy-8" stroke-width="50" fill="#000000"></path>
                    <g id="Group" transform="translate(352.5546, 368.6639)" stroke-linecap="round" stroke-width="100">
                        <line x1="592.302495" y1="1" x2="450" y2="427.907484" id="+E" transform="translate(521.1512, 214.4537) scale(1, -1) translate(-521.1512, -214.4537)"></line>
                        <line x1="592.302495" y1="474" x2="450" y2="900.907484" id="+E-Copy-2" transform="translate(521.1512, 687.4537) scale(-1, -1) translate(-521.1512, -687.4537)"></line>
                        <line x1="592.747847" y1="24.4285714" x2="308.142857" y2="878.24354" id="+E-Copy-3" transform="translate(450.4454, 451.3361) scale(1, -1) rotate(-108.4349) translate(-450.4454, -451.3361)"></line>
                        <line x1="450.302495" y1="1.09251588" x2="308" y2="428" id="+E-Copy"></line>
                        <line x1="450.302495" y1="474.092516" x2="308" y2="901" id="+E-Copy-4" transform="translate(379.1512, 687.5463) scale(-1, 1) translate(-379.1512, -687.5463)"></line>
                    </g>
                </g>
                <g id="+" transform="translate(2400, 2400)">
                    <path d="M1440,25 C1477.70055,25 1490.43471,25.2001487 1503.64401,26.2793912 C1517.04317,27.374146 1525.84293,29.3176662 1532.70246,32.5176426 L1534.04929,33.1745115 C1548.16144,40.3650138 1559.63499,51.8385556 1566.82549,65.9507125 C1570.41943,73.0042094 1572.55287,82.0635536 1573.72061,96.3559934 C1574.79985,109.565294 1575,122.299446 1575,160 L1575,1440 C1575,1477.70055 1574.79985,1490.43471 1573.72061,1503.64401 C1572.55287,1517.93645 1570.41943,1526.99579 1566.82549,1534.04929 C1559.63499,1548.16144 1548.16144,1559.63499 1534.04929,1566.82549 C1526.99579,1570.41943 1517.93645,1572.55287 1503.64401,1573.72061 C1490.43471,1574.79985 1477.70055,1575 1440,1575 L160,1575 C122.299446,1575 109.565294,1574.79985 96.3559934,1573.72061 C82.0635536,1572.55287 73.0042094,1570.41943 65.9507125,1566.82549 C51.8385556,1559.63499 40.3650138,1548.16144 33.1745107,1534.04929 C29.5805745,1526.99579 27.4471297,1517.93645 26.2793912,1503.64401 C25.2001487,1490.43471 25,1477.70055 25,1440 L25,160 C25,122.299446 25.2001487,109.565294 26.2793912,96.3559934 C27.4471297,82.0635536 29.5805745,73.0042094 33.1745107,65.9507125 C40.3650138,51.8385556 51.8385556,40.3650138 65.9507125,33.1745107 C78.8093768,26.622694 95.3518482,25.046768 149.842189,25.0026538 L160.00654,24.9999991 Z" id="Rectangle-2-Copy-5" stroke-width="50" fill="#000000"></path>
                    <line x1="942.302495" y1="373.338564" x2="657.697505" y2="1227.15353" id="+E-Copy" stroke-width="100" stroke-linecap="round" transform="translate(800, 800.246) rotate(-18.4349) translate(-800, -800.246)"></line>
                    <line x1="942.302495" y1="373.338564" x2="657.697505" y2="1227.15353" id="+E-Copy-2" stroke-width="100" stroke-linecap="round" transform="translate(800, 800.246) rotate(-108.4349) translate(-800, -800.246)"></line>
                </g>
                <g id="xRight" transform="translate(3200, 1200) rotate(90) translate(-3200, -1200)translate(2400, 400)">
                    <path d="M1440,25 C1477.70055,25 1490.43471,25.2001487 1503.64401,26.2793912 C1517.04317,27.374146 1525.84293,29.3176662 1532.70246,32.5176426 L1534.04929,33.1745115 C1548.16144,40.3650138 1559.63499,51.8385556 1566.82549,65.9507125 C1570.41943,73.0042094 1572.55287,82.0635536 1573.72061,96.3559934 C1574.79985,109.565294 1575,122.299446 1575,160 L1575,1440 C1575,1477.70055 1574.79985,1490.43471 1573.72061,1503.64401 C1572.55287,1517.93645 1570.41943,1526.99579 1566.82549,1534.04929 C1559.63499,1548.16144 1548.16144,1559.63499 1534.04929,1566.82549 C1526.99579,1570.41943 1517.93645,1572.55287 1503.64401,1573.72061 C1490.43471,1574.79985 1477.70055,1575 1440,1575 L160,1575 C122.299446,1575 109.565294,1574.79985 96.3559934,1573.72061 C82.0635536,1572.55287 73.0042094,1570.41943 65.9507125,1566.82549 C51.8385556,1559.63499 40.3650138,1548.16144 33.1745107,1534.04929 C29.5805745,1526.99579 27.4471297,1517.93645 26.2793912,1503.64401 C25.2001487,1490.43471 25,1477.70055 25,1440 L25,160 C25,122.299446 25.2001487,109.565294 26.2793912,96.3559934 C27.4471297,82.0635536 29.5805745,73.0042094 33.1745107,65.9507125 C40.3650138,51.8385556 51.8385556,40.3650138 65.9507125,33.1745107 C78.8093768,26.622694 95.3518482,25.046768 149.842189,25.0026538 L160.00654,24.9999991 Z" id="Rectangle-2-Copy-8" stroke-width="50" fill="#000000"></path>
                    <line x1="941.857143" y1="349.663944" x2="799.554648" y2="776.571429" id="+E" stroke-width="100" stroke-linecap="round" transform="translate(870.7059, 563.1177) scale(1, -1) translate(-870.7059, -563.1177)"></line>
                    <line x1="874.376264" y1="788.592375" x2="725.329298" y2="1237.1416" id="+E-Copy-2" stroke-width="100" stroke-linecap="round" transform="translate(799.7713, 1013.0924) scale(1, -1) rotate(-18.4349) translate(-799.7713, -1013.0924)"></line>
                    <line x1="844.961287" y1="642.245929" x2="755.152601" y2="911.671985" id="+E-Copy-3" stroke-width="100" stroke-linecap="round" transform="translate(799.8962, 776.7959) scale(1, -1) rotate(-108.4349) translate(-799.8962, -776.7959)"></line>
                    <line x1="799.857143" y1="349.75646" x2="657.554648" y2="776.663944" id="+E-Copy" stroke-width="100" stroke-linecap="round"></line>
                </g>
                <g id="\" transform="translate(400, 4400)">
                    <path d="M1440,25 C1477.70055,25 1490.43471,25.2001487 1503.64401,26.2793912 C1517.04317,27.374146 1525.84293,29.3176662 1532.70246,32.5176426 L1534.04929,33.1745115 C1548.16144,40.3650138 1559.63499,51.8385556 1566.82549,65.9507125 C1570.41943,73.0042094 1572.55287,82.0635536 1573.72061,96.3559934 C1574.79985,109.565294 1575,122.299446 1575,160 L1575,1440 C1575,1477.70055 1574.79985,1490.43471 1573.72061,1503.64401 C1572.55287,1517.93645 1570.41943,1526.99579 1566.82549,1534.04929 C1559.63499,1548.16144 1548.16144,1559.63499 1534.04929,1566.82549 C1526.99579,1570.41943 1517.93645,1572.55287 1503.64401,1573.72061 C1490.43471,1574.79985 1477.70055,1575 1440,1575 L160,1575 C122.299446,1575 109.565294,1574.79985 96.3559934,1573.72061 C82.0635536,1572.55287 73.0042094,1570.41943 65.9507125,1566.82549 C51.8385556,1559.63499 40.3650138,1548.16144 33.1745107,1534.04929 C29.5805745,1526.99579 27.4471297,1517.93645 26.2793912,1503.64401 C25.2001487,1490.43471 25,1477.70055 25,1440 L25,160 C25,122.299446 25.2001487,109.565294 26.2793912,96.3559934 C27.4471297,82.0635536 29.5805745,73.0042094 33.1745107,65.9507125 C40.3650138,51.8385556 51.8385556,40.3650138 65.9507125,33.1745107 C78.8093768,26.622694 95.3518482,25.046768 149.842189,25.0026538 L160.00654,24.9999991 Z" id="Rectangle-2-Copy-8" stroke-width="50" fill="#000000"></path>
                    <line x1="941.857143" y1="372.75646" x2="657.252153" y2="1226.57143" id="+E" stroke-width="100" stroke-linecap="round" transform="translate(799.5546, 799.6639) scale(1, -1) translate(-799.5546, -799.6639)"></line>
                </g>
                <g id="|" transform="translate(400, 2400)">
                    <path d="M1440,25 C1477.70055,25 1490.43471,25.2001487 1503.64401,26.2793912 C1517.04317,27.374146 1525.84293,29.3176662 1532.70246,32.5176426 L1534.04929,33.1745115 C1548.16144,40.3650138 1559.63499,51.8385556 1566.82549,65.9507125 C1570.41943,73.0042094 1572.55287,82.0635536 1573.72061,96.3559934 C1574.79985,109.565294 1575,122.299446 1575,160 L1575,1440 C1575,1477.70055 1574.79985,1490.43471 1573.72061,1503.64401 C1572.55287,1517.93645 1570.41943,1526.99579 1566.82549,1534.04929 C1559.63499,1548.16144 1548.16144,1559.63499 1534.04929,1566.82549 C1526.99579,1570.41943 1517.93645,1572.55287 1503.64401,1573.72061 C1490.43471,1574.79985 1477.70055,1575 1440,1575 L160,1575 C122.299446,1575 109.565294,1574.79985 96.3559934,1573.72061 C82.0635536,1572.55287 73.0042094,1570.41943 65.9507125,1566.82549 C51.8385556,1559.63499 40.3650138,1548.16144 33.1745107,1534.04929 C29.5805745,1526.99579 27.4471297,1517.93645 26.2793912,1503.64401 C25.2001487,1490.43471 25,1477.70055 25,1440 L25,160 C25,122.299446 25.2001487,109.565294 26.2793912,96.3559934 C27.4471297,82.0635536 29.5805745,73.0042094 33.1745107,65.9507125 C40.3650138,51.8385556 51.8385556,40.3650138 65.9507125,33.1745107 C78.8093768,26.622694 95.3518482,25.046768 149.842189,25.0026538 L160.00654,24.9999991 Z" id="Rectangle-2-Copy-4" stroke-width="50" fill="#000000"></path>
                    <line x1="942.302495" y1="373.338564" x2="657.697505" y2="1227.15353" id="+E" stroke-width="100" stroke-linecap="round" transform="translate(800, 800.246) rotate(-18.4349) translate(-800, -800.246)"></line>
                </g>
                <g id="/" transform="translate(400, 400)">
                    <path d="M1440,25 C1477.70055,25 1490.43471,25.2001487 1503.64401,26.2793912 C1517.04317,27.374146 1525.84293,29.3176662 1532.70246,32.5176426 L1534.04929,33.1745115 C1548.16144,40.3650138 1559.63499,51.8385556 1566.82549,65.9507125 C1570.41943,73.0042094 1572.55287,82.0635536 1573.72061,96.3559934 C1574.79985,109.565294 1575,122.299446 1575,160 L1575,1440 C1575,1477.70055 1574.79985,1490.43471 1573.72061,1503.64401 C1572.55287,1517.93645 1570.41943,1526.99579 1566.82549,1534.04929 C1559.63499,1548.16144 1548.16144,1559.63499 1534.04929,1566.82549 C1526.99579,1570.41943 1517.93645,1572.55287 1503.64401,1573.72061 C1490.43471,1574.79985 1477.70055,1575 1440,1575 L160,1575 C122.299446,1575 109.565294,1574.79985 96.3559934,1573.72061 C82.0635536,1572.55287 73.0042094,1570.41943 65.9507125,1566.82549 C51.8385556,1559.63499 40.3650138,1548.16144 33.1745107,1534.04929 C29.5805745,1526.99579 27.4471297,1517.93645 26.2793912,1503.64401 C25.2001487,1490.43471 25,1477.70055 25,1440 L25,160 C25,122.299446 25.2001487,109.565294 26.2793912,96.3559934 C27.4471297,82.0635536 29.5805745,73.0042094 33.1745107,65.9507125 C40.3650138,51.8385556 51.8385556,40.3650138 65.9507125,33.1745107 C78.8093768,26.622694 95.3518482,25.046768 149.842189,25.0026538 L160.00654,24.9999991 Z" id="Rectangle-2" stroke-width="50" fill="#000000"></path>
                    <line x1="941.857143" y1="373.428571" x2="657.252153" y2="1227.24354" id="+E" stroke-width="100" stroke-linecap="round"></line>
                </g>
            </g>
            <path d="M8757.7156,426.445446 C8777.96467,428.09986 8793.07961,431.659378 8806.74881,438.624191 L8815.35741,443.44751 C8834.93818,455.457713 8850.88967,472.670959 8861.37582,493.251188 C8868.34062,506.920391 8871.90014,522.035334 8873.55455,542.284399 C8874.79142,557.422955 8875,570.693334 8875,610 L8875,6690 C8875,6729.30667 8874.79142,6742.57705 8873.55455,6757.7156 C8871.90014,6777.96467 8868.34062,6793.07961 8861.37582,6806.74881 C8849.39164,6830.26907 8830.26907,6849.39164 8806.74881,6861.37582 C8793.07961,6868.34062 8777.96467,6871.90014 8757.7156,6873.55455 C8742.57705,6874.79142 8729.30667,6875 8690,6875 L610,6875 C570.693334,6875 557.422955,6874.79142 542.284399,6873.55455 C522.035334,6871.90014 506.920391,6868.34062 493.251188,6861.37582 C469.730926,6849.39164 450.608356,6830.26907 438.624184,6806.74881 C431.659378,6793.07961 428.09986,6777.96467 426.445446,6757.7156 C425.208577,6742.57705 425,6729.30667 425,6690 L425,610 C425,570.693334 425.208577,557.422955 426.445446,542.284399 C428.09986,522.035334 431.659378,506.920391 438.624184,493.251188 C450.608356,469.730926 469.730926,450.608356 493.251188,438.624184 C506.920391,431.659378 522.035334,428.09986 542.284399,426.445446 C557.422955,425.208577 570.693334,425 610,425 L8690,425 C8729.30667,425 8742.57705,425.208577 8757.7156,426.445446 Z" id="Display-background" stroke="#F08537" stroke-width="50" fill="#ECD9AF"></path>
            <g id="Display" transform="translate(920, 1263)">
                <g id="6" transform="translate(6649, 3921)">
                    <rect id="Rectangle-Copy" fill="#ECD9AF" opacity="0" x="0" y="0" width="1200" height="1200"></rect>
                    <line x1="599.142857" y1="85.7142857" x2="942" y2="1114.28571" id="-C" stroke="#000000" stroke-width="51.4285714" stroke-linecap="round"></line>
                    <line x1="942" y1="85.7142857" x2="942" y2="1114.28571" id="0C" stroke="#000000" stroke-width="51.4285714" stroke-linecap="round"></line>
                    <line x1="600" y1="85.7142857" x2="257.142857" y2="1114.28571" id="+G" stroke="#000000" stroke-width="51.4285714" stroke-linecap="round"></line>
                </g>
                <g id="5" transform="translate(5249, 3921)">
                    <rect id="Rectangle-Copy" fill="#ECD9AF" opacity="0" x="0" y="0" width="1200" height="1200"></rect>
                    <line x1="685.714286" y1="85.7142857" x2="1028.57143" y2="1114.28571" id="-B" stroke="#000000" stroke-width="51.4285714" stroke-linecap="round"></line>
                    <line x1="514.285714" y1="85.7142857" x2="857.142857" y2="1114.28571" id="-D" stroke="#000000" stroke-width="51.4285714" stroke-linecap="round"></line>
                    <line x1="514.285714" y1="85.7142857" x2="171.428571" y2="1114.28571" id="+H" stroke="#000000" stroke-width="51.4285714" stroke-linecap="round"></line>
                </g>
                <g id="4" transform="translate(3849, 3921)">
                    <rect id="Rectangle-Copy" fill="#ECD9AF" opacity="0" x="0" y="0" width="1200" height="1200"></rect>
                    <line x1="857.142857" y1="85.7142857" x2="514.285714" y2="1114.28571" id="+D" stroke="#000000" stroke-width="51.4285714" stroke-linecap="round"></line>
                    <line x1="685.714286" y1="85.7142857" x2="342.857143" y2="1114.28571" id="+F" stroke="#000000" stroke-width="51.4285714" stroke-linecap="round"></line>
                </g>
                <g id="3" transform="translate(2449, 3921)">
                    <rect id="Rectangle-Copy" fill="#ECD9AF" opacity="0" x="0" y="0" width="1200" height="1200"></rect>
                    <line x1="771.428571" y1="85.7142857" x2="771.428571" y2="1114.28571" id="0E" stroke="#000000" stroke-width="51.4285714" stroke-linecap="round"></line>
                    <line x1="771.428571" y1="85.7142857" x2="428.571429" y2="1114.28571" id="+E" stroke="#000000" stroke-width="51.4285714" stroke-linecap="round"></line>
                </g>
                <g id="2" transform="translate(1049, 3921)">
                    <rect id="Rectangle-Copy" fill="#ECD9AF" opacity="0" x="0" y="0" width="1200" height="1200"></rect>
                    <line x1="600" y1="85.7142857" x2="942.857143" y2="1114.28571" id="-C" stroke="#000000" stroke-width="51.4285714" stroke-linecap="round"></line>
                    <line x1="600" y1="85.7142857" x2="257.142857" y2="1114.28571" id="+G" stroke="#000000" stroke-width="51.4285714" stroke-linecap="round"></line>
                </g>
                <g id="1" transform="translate(-351, 3921)">
                    <rect id="Rectangle-Copy" fill="#ECD9AF" opacity="0" x="0" y="0" width="1200" height="1200"></rect>
                    <line x1="771.428571" y1="85.7142857" x2="428.571429" y2="1114.28571" id="+E" stroke="#000000" stroke-width="51.4285714" stroke-linecap="round"></line>
                </g>
                <g id="-1" transform="translate(7249, 2321) scale(1, -1) translate(-7249, -2321)translate(6649, 1721)">
                    <rect id="Rectangle-Copy" fill="#ECD9AF" opacity="0" x="0" y="0" width="1200" height="1200"></rect>
                    <line x1="771.428571" y1="85.7142857" x2="428.571429" y2="1114.28571" id="+E" stroke="#000000" stroke-width="51.4285714" stroke-linecap="round"></line>
                </g>
                <g id="-2" transform="translate(5849, 2321) scale(1, -1) translate(-5849, -2321)translate(5249, 1721)">
                    <rect id="Rectangle-Copy" fill="#ECD9AF" opacity="0" x="0" y="0" width="1200" height="1200"></rect>
                    <line x1="600" y1="85.7142857" x2="942.857143" y2="1114.28571" id="-C" stroke="#000000" stroke-width="51.4285714" stroke-linecap="round"></line>
                    <line x1="600" y1="85.7142857" x2="257.142857" y2="1114.28571" id="+G" stroke="#000000" stroke-width="51.4285714" stroke-linecap="round"></line>
                </g>
                <g id="-3" transform="translate(4449, 2321) scale(1, -1) translate(-4449, -2321)translate(3849, 1721)">
                    <rect id="Rectangle-Copy" fill="#ECD9AF" opacity="0" x="0" y="0" width="1200" height="1200"></rect>
                    <line x1="771.428571" y1="85.7142857" x2="771.428571" y2="1114.28571" id="0E" stroke="#000000" stroke-width="51.4285714" stroke-linecap="round"></line>
                    <line x1="771.428571" y1="85.7142857" x2="428.571429" y2="1114.28571" id="+E" stroke="#000000" stroke-width="51.4285714" stroke-linecap="round"></line>
                </g>
                <g id="-4" transform="translate(3049, 2321) scale(1, -1) translate(-3049, -2321)translate(2449, 1721)">
                    <rect id="Rectangle-Copy" fill="#ECD9AF" opacity="0" x="0" y="0" width="1200" height="1200"></rect>
                    <line x1="857.142857" y1="85.7142857" x2="514.285714" y2="1114.28571" id="+D" stroke="#000000" stroke-width="51.4285714" stroke-linecap="round"></line>
                    <line x1="685.714286" y1="85.7142857" x2="342.857143" y2="1114.28571" id="+F" stroke="#000000" stroke-width="51.4285714" stroke-linecap="round"></line>
                </g>
                <g id="-5" transform="translate(1649, 2321) scale(1, -1) translate(-1649, -2321)translate(1049, 1721)">
                    <rect id="Rectangle-Copy" fill="#ECD9AF" opacity="0" x="0" y="0" width="1200" height="1200"></rect>
                    <line x1="685.714286" y1="85.7142857" x2="1028.57143" y2="1114.28571" id="-B" stroke="#000000" stroke-width="51.4285714" stroke-linecap="round"></line>
                    <line x1="514.285714" y1="85.7142857" x2="857.142857" y2="1114.28571" id="-D" stroke="#000000" stroke-width="51.4285714" stroke-linecap="round"></line>
                    <line x1="514.285714" y1="85.7142857" x2="171.428571" y2="1114.28571" id="+H" stroke="#000000" stroke-width="51.4285714" stroke-linecap="round"></line>
                </g>
                <g id="-6" transform="translate(249, 2321) scale(1, -1) translate(-249, -2321)translate(-351, 1721)">
                    <rect id="Rectangle-Copy" fill="#ECD9AF" opacity="0" x="0" y="0" width="1200" height="1200"></rect>
                    <line x1="600" y1="85.7142857" x2="942.857143" y2="1114.28571" id="-C" stroke="#000000" stroke-width="51.4285714" stroke-linecap="round"></line>
                    <line x1="942.857143" y1="85.7142857" x2="942.857143" y2="1114.28571" id="0C" stroke="#000000" stroke-width="51.4285714" stroke-linecap="round"></line>
                    <line x1="600" y1="85.7142857" x2="257.142857" y2="1114.28571" id="+G" stroke="#000000" stroke-width="51.4285714" stroke-linecap="round"></line>
                </g>
                <g id="-8" transform="translate(7249, 121) scale(1, -1) translate(-7249, -121)translate(6649, -479)">
                    <rect id="Rectangle-Copy" fill="#ECD9AF" opacity="0" x="0" y="0" width="1200" height="1200"></rect>
                    <line x1="600" y1="85.7142857" x2="942.857143" y2="1114.28571" id="-C" stroke="#000000" stroke-width="51.4285714" stroke-linecap="round"></line>
                    <line x1="600" y1="85.7142857" x2="600" y2="1114.28571" id="0G" stroke="#000000" stroke-width="51.4285714" stroke-linecap="round"></line>
                    <line x1="600" y1="85.7142857" x2="257.142857" y2="1114.28571" id="+G" stroke="#000000" stroke-width="51.4285714" stroke-linecap="round"></line>
                </g>
                <g id="-9" transform="translate(5849, 121) scale(1, -1) translate(-5849, -121)translate(5249, -479)">
                    <rect id="Rectangle-Copy" fill="#ECD9AF" opacity="0" x="0" y="0" width="1200" height="1200"></rect>
                    <line x1="857.142857" y1="85.7142857" x2="857.142857" y2="1114.28571" id="0D" stroke="#000000" stroke-width="51.4285714" stroke-linecap="round"></line>
                    <line x1="685.714286" y1="85.7142857" x2="685.714286" y2="1114.28571" id="0F" stroke="#000000" stroke-width="51.4285714" stroke-linecap="round"></line>
                    <line x1="685.714286" y1="85.7142857" x2="342.857143" y2="1114.28571" id="+F" stroke="#000000" stroke-width="51.4285714" stroke-linecap="round"></line>
                </g>
                <g id="-10" transform="translate(4449, 121) scale(1, -1) translate(-4449, -121)translate(3849, -479)">
                    <rect id="Rectangle-Copy" fill="#ECD9AF" opacity="0" x="0" y="0" width="1200" height="1200"></rect>
                    <line x1="600" y1="85.7142857" x2="600" y2="1114.28571" id="0G" stroke="#000000" stroke-width="51.4285714" stroke-linecap="round"></line>
                    <line x1="942.857143" y1="85.7142857" x2="600" y2="1114.28571" id="+C" stroke="#000000" stroke-width="51.4285714" stroke-linecap="round"></line>
                    <line x1="600" y1="85.7142857" x2="257.142857" y2="1114.28571" id="+G" stroke="#000000" stroke-width="51.4285714" stroke-linecap="round"></line>
                </g>
                <g id="-11" transform="translate(3049, 121) scale(1, -1) translate(-3049, -121)translate(2449, -479)">
                    <rect id="Rectangle-Copy" fill="#ECD9AF" opacity="0" x="0" y="0" width="1200" height="1200"></rect>
                    <line x1="685.714286" y1="85.7142857" x2="1028.57143" y2="1114.28571" id="-B" stroke="#000000" stroke-width="51.4285714" stroke-linecap="round"></line>
                    <line x1="685.714286" y1="85.7142857" x2="342.857143" y2="1114.28571" id="+F" stroke="#000000" stroke-width="51.4285714" stroke-linecap="round"></line>
                    <line x1="514.285714" y1="85.7142857" x2="171.428571" y2="1114.28571" id="+H" stroke="#000000" stroke-width="51.4285714" stroke-linecap="round"></line>
                </g>
                <g id="-12" transform="translate(1649, 121) scale(1, -1) translate(-1649, -121)translate(1049, -479)">
                    <rect id="Rectangle-Copy" fill="#ECD9AF" opacity="0" x="0" y="0" width="1200" height="1200"></rect>
                    <line x1="857.142857" y1="85.7142857" x2="857.142857" y2="1114.28571" id="0D" stroke="#000000" stroke-width="51.4285714" stroke-linecap="round"></line>
                    <line x1="857.142857" y1="85.7142857" x2="514.285714" y2="1114.28571" id="+D" stroke="#000000" stroke-width="51.4285714" stroke-linecap="round"></line>
                    <line x1="685.714286" y1="85.7142857" x2="342.857143" y2="1114.28571" id="+F" stroke="#000000" stroke-width="51.4285714" stroke-linecap="round"></line>
                </g>
                <g id="-13" transform="translate(249, 121) scale(1, -1) translate(-249, -121)translate(-351, -479)">
                    <rect id="Rectangle-Copy" fill="#ECD9AF" opacity="0" x="0" y="0" width="1200" height="1200"></rect>
                    <line x1="942.857143" y1="85.7142857" x2="600" y2="1114.28571" id="+C" stroke="#000000" stroke-width="51.4285714" stroke-linecap="round"></line>
                    <line x1="771.428571" y1="85.7142857" x2="428.571429" y2="1114.28571" id="+E" stroke="#000000" stroke-width="51.4285714" stroke-linecap="round"></line>
                    <line x1="600" y1="85.7142857" x2="257.142857" y2="1114.28571" id="+G" stroke="#000000" stroke-width="51.4285714" stroke-linecap="round"></line>
                </g>
                <g id="Point" transform="translate(4769, -359)">
                    <path d="M96,0 L864,0 C897.60315,0 914.404726,0 927.23943,6.53960855 C938.529156,12.292011 947.707989,21.4708444 953.460391,32.76057 C960,45.5952745 960,62.3968496 960,96 L960,864 C960,897.60315 960,914.404726 953.460391,927.23943 C947.707989,938.529156 938.529156,947.707989 927.23943,953.460391 C914.404726,960 897.60315,960 864,960 L96,960 C62.3968496,960 45.5952745,960 32.76057,953.460391 C21.4708444,947.707989 12.292011,938.529156 6.53960855,927.23943 C0,914.404726 0,897.60315 0,864 L0,96 C0,62.3968496 0,45.5952745 6.53960855,32.76057 C12.292011,21.4708444 21.4708444,12.292011 32.76057,6.53960855 C45.5952745,0 62.3968496,0 96,0 Z" id="Rectangle-2-Copy-10" fill="#000000" opacity="0"></path>
                    <circle id="Oval" stroke="#000000" stroke-width="60" cx="480" cy="480" r="60"></circle>
                </g>
                <g id="Point-Copy" transform="translate(3338, 1841)">
                    <path d="M96,0 L864,0 C897.60315,0 914.404726,0 927.23943,6.53960855 C938.529156,12.292011 947.707989,21.4708444 953.460391,32.76057 C960,45.5952745 960,62.3968496 960,96 L960,864 C960,897.60315 960,914.404726 953.460391,927.23943 C947.707989,938.529156 938.529156,947.707989 927.23943,953.460391 C914.404726,960 897.60315,960 864,960 L96,960 C62.3968496,960 45.5952745,960 32.76057,953.460391 C21.4708444,947.707989 12.292011,938.529156 6.53960855,927.23943 C0,914.404726 0,897.60315 0,864 L0,96 C0,62.3968496 0,45.5952745 6.53960855,32.76057 C12.292011,21.4708444 21.4708444,12.292011 32.76057,6.53960855 C45.5952745,0 62.3968496,0 96,0 Z" id="Rectangle-2-Copy-10" fill="#000000" opacity="0"></path>
                    <circle id="Oval-2" stroke="#000000" stroke-width="60" cx="480" cy="480" r="60"></circle>
                </g>
                <g id="invert" opacity="0.33" transform="translate(6769, 2961)">
                    <path d="M96,0 L864,0 C897.60315,0 914.404726,0 927.23943,6.53960855 C938.529156,12.292011 947.707989,21.4708444 953.460391,32.76057 C960,45.5952745 960,62.3968496 960,96 L960,864 C960,897.60315 960,914.404726 953.460391,927.23943 C947.707989,938.529156 938.529156,947.707989 927.23943,953.460391 C914.404726,960 897.60315,960 864,960 L96,960 C62.3968496,960 45.5952745,960 32.76057,953.460391 C21.4708444,947.707989 12.292011,938.529156 6.53960855,927.23943 C0,914.404726 0,897.60315 0,864 L0,96 C0,62.3968496 0,45.5952745 6.53960855,32.76057 C12.292011,21.4708444 21.4708444,12.292011 32.76057,6.53960855 C45.5952745,0 62.3968496,0 96,0 Z" id="Rectangle-2-Copy-8" fill="#000000" opacity="0"></path>
                    <line x1="565.114286" y1="209.798367" x2="479.732789" y2="465.942857" id="+E" stroke="#000000" stroke-width="60" stroke-linecap="round" transform="translate(522.4235, 337.8706) scale(1, -1) translate(-522.4235, -337.8706)"></line>
                    <line x1="565.114286" y1="493.598367" x2="479.732789" y2="749.742857" id="+E-Copy-2" stroke="#000000" stroke-width="60" stroke-linecap="round" transform="translate(522.4235, 621.6706) scale(-1, -1) translate(-522.4235, -621.6706)"></line>
                    <line x1="565.381497" y1="223.85551" x2="394.618503" y2="736.14449" id="+E-Copy-3" stroke="#000000" stroke-width="60" stroke-linecap="round" transform="translate(480, 480) scale(1, -1) rotate(-108.4349) translate(-480, -480)"></line>
                    <line x1="479.914286" y1="209.853876" x2="394.532789" y2="465.998367" id="+E-Copy" stroke="#000000" stroke-width="60" stroke-linecap="round"></line>
                    <line x1="479.914286" y1="493.653876" x2="394.532789" y2="749.798367" id="+E-Copy-4" stroke="#000000" stroke-width="60" stroke-linecap="round" transform="translate(437.2235, 621.7261) scale(-1, 1) translate(-437.2235, -621.7261)"></line>
                </g>
                <g id="+" opacity="0.33" transform="translate(6769, 761)">
                    <path d="M96,0 L864,0 C897.60315,0 914.404726,0 927.23943,6.53960855 C938.529156,12.292011 947.707989,21.4708444 953.460391,32.76057 C960,45.5952745 960,62.3968496 960,96 L960,864 C960,897.60315 960,914.404726 953.460391,927.23943 C947.707989,938.529156 938.529156,947.707989 927.23943,953.460391 C914.404726,960 897.60315,960 864,960 L96,960 C62.3968496,960 45.5952745,960 32.76057,953.460391 C21.4708444,947.707989 12.292011,938.529156 6.53960855,927.23943 C0,914.404726 0,897.60315 0,864 L0,96 C0,62.3968496 0,45.5952745 6.53960855,32.76057 C12.292011,21.4708444 21.4708444,12.292011 32.76057,6.53960855 C45.5952745,0 62.3968496,0 96,0 Z" id="Rectangle-2-Copy-5" fill="#000000" opacity="0"></path>
                    <line x1="565.381497" y1="224.003139" x2="394.618503" y2="736.29212" id="+E-Copy" stroke="#000000" stroke-width="60" stroke-linecap="round" transform="translate(480, 480.1476) rotate(-18.4349) translate(-480, -480.1476)"></line>
                    <line x1="565.381497" y1="224.003139" x2="394.618503" y2="736.29212" id="+E-Copy-2" stroke="#000000" stroke-width="60" stroke-linecap="round" transform="translate(480, 480.1476) rotate(-108.4349) translate(-480, -480.1476)"></line>
                </g>
                <g id="xRight" opacity="0.33" transform="translate(5849, 3441) rotate(90) translate(-5849, -3441)translate(5369, 2961)">
                    <path d="M96,0 L864,0 C897.60315,0 914.404726,0 927.23943,6.53960855 C938.529156,12.292011 947.707989,21.4708444 953.460391,32.76057 C960,45.5952745 960,62.3968496 960,96 L960,864 C960,897.60315 960,914.404726 953.460391,927.23943 C947.707989,938.529156 938.529156,947.707989 927.23943,953.460391 C914.404726,960 897.60315,960 864,960 L96,960 C62.3968496,960 45.5952745,960 32.76057,953.460391 C21.4708444,947.707989 12.292011,938.529156 6.53960855,927.23943 C0,914.404726 0,897.60315 0,864 L0,96 C0,62.3968496 0,45.5952745 6.53960855,32.76057 C12.292011,21.4708444 21.4708444,12.292011 32.76057,6.53960855 C45.5952745,0 62.3968496,0 96,0 Z" id="Rectangle-2-Copy-8" fill="#000000" opacity="0"></path>
                    <line x1="565.114286" y1="209.798367" x2="479.732789" y2="465.942857" id="+E" stroke="#000000" stroke-width="60" stroke-linecap="round" transform="translate(522.4235, 337.8706) scale(1, -1) translate(-522.4235, -337.8706)"></line>
                    <line x1="524.625758" y1="473.155425" x2="435.197579" y2="742.284958" id="+E-Copy-2" stroke="#000000" stroke-width="60" stroke-linecap="round" transform="translate(479.8628, 607.8554) scale(1, -1) rotate(-18.4349) translate(-479.8628, -607.8554)"></line>
                    <line x1="506.976772" y1="385.347557" x2="453.091561" y2="547.003191" id="+E-Copy-3" stroke="#000000" stroke-width="60" stroke-linecap="round" transform="translate(479.9377, 466.0776) scale(1, -1) rotate(-108.4349) translate(-479.9377, -466.0776)"></line>
                    <line x1="479.914286" y1="209.853876" x2="394.532789" y2="465.998367" id="+E-Copy" stroke="#000000" stroke-width="60" stroke-linecap="round"></line>
                </g>
            </g>
            <g id="info/settings-button" transform="translate(562, -1350)">
                <circle id="Oval" stroke="#000000" stroke-width="30" cx="4088" cy="525" r="360"></circle>
                <text id="i" font-family="Comfortaa-Regular, Comfortaa" font-size="500" font-weight="normal" fill="#000000">
                    <tspan x="4015.25" y="686">i</tspan>
                </text>
            </g>
        </g>
    </g>
</svg>